<svg width="342" height="244" viewBox="0 0 342 244" fill="none" xmlns="http://www.w3.org/2000/svg">
<g filter="url(#filter0_d_6_207)">
<path opacity="0.1" d="M115.674 235.185C131.871 235.185 145.001 233.081 145.001 230.484C145.001 227.887 131.871 225.782 115.674 225.782C99.4765 225.782 86.3463 227.887 86.3463 230.484C86.3463 233.081 99.4765 235.185 115.674 235.185Z" fill="#587EEC"/>
<path opacity="0.1" d="M275.093 235.317C295.304 235.317 311.689 233.213 311.689 230.616C311.689 228.019 295.304 225.915 275.093 225.915C254.881 225.915 238.497 228.019 238.497 230.616C238.497 233.213 254.881 235.317 275.093 235.317Z" fill="#587EEC"/>
<path opacity="0.1" d="M9.26568 101.772H39.812V143.328H11.502C11.4267 143.755 11.3545 144.184 11.2762 144.614H39.812V178.128C39.7608 178.113 39.7157 178.095 39.6675 178.077C38.8609 177.758 38.0603 177.422 37.2597 177.061L36.748 176.83C35.9454 176.452 35.1428 176.051 34.3402 175.628C34.0603 175.481 33.7804 175.328 33.5035 175.172C29.0477 172.681 24.9999 169.524 21.5005 165.811C21.3981 165.712 21.3018 165.607 21.1995 165.511C20.7119 164.982 20.2333 164.447 19.7698 163.9L19.2582 163.3C18.7104 162.63 18.1807 161.942 17.666 161.245C17.5907 161.143 17.5185 161.04 17.4403 160.944C15.3471 158.047 13.6091 154.911 12.2634 151.601C12.2213 151.502 12.1852 151.394 12.146 151.301C11.7327 150.24 11.3665 149.168 11.0475 148.087C10.909 147.633 10.7766 147.185 10.6622 146.714C10.6201 146.575 10.584 146.44 10.5509 146.305C8.8413 139.645 8.63965 132.726 8.63965 125.856C8.63965 125.054 8.63965 124.249 8.63965 123.453C8.63965 120.674 8.67276 117.877 8.72091 115.083C8.72091 114.359 8.75101 113.638 8.76606 112.911C8.8082 111.067 8.86839 109.222 8.94665 107.378C8.96471 106.864 8.98878 106.353 9.01587 105.842C9.01587 105.548 9.03092 105.254 9.06102 104.959C9.13325 103.89 9.19345 102.829 9.26568 101.772Z" fill="#587EEC"/>
<path opacity="0.1" d="M39.812 55.5022H23.0565C25.7802 51.2471 28.7562 47.1582 31.9685 43.2573C34.4576 40.2051 37.0851 37.2311 39.812 34.3651V55.5022Z" fill="#587EEC"/>
<path opacity="0.1" d="M39.812 56.788V100.486H9.362C9.362 100.36 9.38307 100.231 9.3921 100.105C9.41918 99.7591 9.44627 99.4136 9.47637 99.0711C9.50948 98.6686 9.5456 98.263 9.58472 97.8695C9.62385 97.4759 9.66599 96.9953 9.71113 96.5597C9.75628 96.1241 9.79842 95.6825 9.84958 95.2469C9.90075 94.8113 9.9459 94.3757 10.0001 93.9431C10.0542 93.5105 10.1024 93.0719 10.1596 92.6393C10.2047 92.2788 10.2529 91.9213 10.3011 91.5608C10.3703 91.0531 10.4425 90.5424 10.5208 90.0377C10.5208 89.9626 10.5418 89.8845 10.5539 89.8124C11.1032 86.1178 11.8517 82.4555 12.7962 78.8413C13.7848 75.05 15.0471 71.3352 16.5734 67.726C18.1956 63.9503 20.0949 60.2994 22.2559 56.803L39.812 56.788Z" fill="#587EEC"/>
<path opacity="0.1" d="M47.1047 101.769V143.328H112.348V101.769H47.1047ZM47.1047 144.611V180.3C47.4779 180.378 47.8481 180.453 48.2153 180.516C48.7149 180.612 49.2115 180.7 49.7202 180.775C49.8165 180.79 49.9158 180.805 50.0212 180.814C50.2198 180.847 50.4245 180.874 50.6231 180.901C51.1257 180.97 51.6254 181.027 52.128 181.072C52.3658 181.096 52.6066 181.117 52.8473 181.135L53.4282 181.18C53.7443 181.204 54.0573 181.222 54.3673 181.231C54.5599 181.231 54.7525 181.249 54.9512 181.255C55.1017 181.255 55.2522 181.255 55.4087 181.255C55.5652 181.255 55.7879 181.255 55.9775 181.255C56.2364 181.255 56.4952 181.255 56.751 181.255H57.0972C57.356 181.255 57.6148 181.255 57.8707 181.231H57.8887C58.0663 181.231 58.2469 181.231 58.4275 181.207C58.4776 181.21 58.5279 181.21 58.578 181.207C58.7285 181.207 58.8789 181.207 59.0234 181.186H59.1288L60.137 181.108C60.4681 181.078 60.8022 181.039 61.1393 181.003L61.8255 180.922C64.6173 180.531 67.3781 179.945 70.0874 179.167C76.1732 177.473 82.1265 175.103 88.2093 173.366C96.0739 171.128 104.763 170.029 112.363 172.766V144.611H47.1047ZM112.348 55.5023V0.175201C105.205 0.0979576 98.0811 0.931846 91.1499 2.65662C74.6292 6.79931 59.806 15.7847 47.1047 27.2605V55.4993H50.3793V56.7821H47.1047V100.486H112.348V56.7851H63.824V55.5023H112.348ZM196.149 36.8136C192.062 36.6694 187.999 35.3776 184.324 33.3829C177.296 29.5676 171.683 23.6765 165.41 18.7047C152.378 8.34945 136.215 2.10085 119.634 0.550718V55.5023H212.772L213.004 55.259L196.149 36.8136ZM204.634 35.3115L213.63 45.1651V32.728C210.617 33.1005 207.978 33.9867 204.646 35.2995L204.634 35.3115ZM213.63 189.162V144.611H194.461C194.41 144.422 194.358 144.229 194.298 144.037C194.355 144.229 194.403 144.422 194.458 144.611H119.646V176.83C120.357 177.356 121.058 177.909 121.753 178.47C122.503 179.071 123.243 179.705 123.987 180.327L124.736 180.946C125.094 181.246 125.455 181.547 125.82 181.829C126.542 182.414 127.271 182.991 128.008 183.559C128.372 183.86 128.745 184.13 129.115 184.413C134.992 188.898 141.192 192.945 147.665 196.522C149.115 197.323 150.579 198.105 152.056 198.869C153.04 199.37 154.03 199.869 155.023 200.353C156.516 201.08 158.021 201.781 159.538 202.455C173.524 208.722 188.312 213.021 203.481 215.232C206.85 215.729 210.232 216.119 213.627 216.404V189.159H213.928L213.63 189.162ZM119.646 56.7851V100.486H213.642V56.7851H119.646ZM119.646 101.769V143.328H213.642V101.769H119.646ZM220.938 32.6739V46.547L232.42 33.9717C228.616 33.3589 224.788 32.9213 220.938 32.6589V32.6739ZM220.938 101.784V143.328H312.36V101.769L220.938 101.784ZM312.026 192.461L312.348 144.611H220.938V216.881C226.826 217.128 232.724 217.058 238.605 216.671H238.708C241.517 216.495 244.313 216.238 247.096 215.902H247.159C262.006 214.177 276.524 210.311 290.259 204.423L312.026 192.461ZM329.988 108.612C329.645 107.804 329.287 107.002 328.923 106.209C328.243 104.707 327.523 103.247 326.783 101.787H319.65V143.328H337.684C337.675 131.564 334.693 119.547 329.997 108.597L329.988 108.612ZM319.65 144.626V185.783C324.73 180.922 329.022 175.361 332.113 169.004C335.83 161.35 337.531 153.062 337.669 144.62L319.65 144.626ZM319.65 89.6743V100.489H326.115C324.159 96.7662 322.004 93.1511 319.659 89.6593L319.65 89.6743ZM257.648 40.8271C257.173 40.6469 256.697 40.4636 256.218 40.2864C251.171 38.426 246.014 36.8789 240.775 35.654L223.204 54.9015L222.867 55.259L223.093 55.5053H285.63C276.92 49.5212 267.53 44.5891 257.657 40.8121L257.648 40.8271ZM287.463 56.8001H222.22L220.938 57.9717V100.486H232.176H232.194H312.372V79.8929C305.119 71.1376 296.748 63.3688 287.472 56.7851L287.463 56.8001Z" fill="#587EEC"/>
<path opacity="0.1" d="M39.812 78.8293V100.486H9.362C9.362 100.36 9.38307 100.231 9.3921 100.105C9.41918 99.7591 9.44627 99.4137 9.47637 99.0712C9.50948 98.6686 9.5456 98.2631 9.58472 97.8695C9.62385 97.476 9.66599 96.9953 9.71113 96.5597C9.75628 96.1241 9.79842 95.6825 9.84958 95.2469C9.90075 94.8113 9.9459 94.3757 10.0001 93.9431C10.0542 93.5105 10.1024 93.0719 10.1596 92.6393C10.2047 92.2789 10.2529 91.9214 10.3011 91.5609C10.3703 91.0532 10.4425 90.5425 10.5208 90.0378C10.5208 89.9627 10.5418 89.8846 10.5539 89.8125C11.1032 86.1179 11.8517 82.4555 12.7962 78.8414L39.812 78.8293Z" fill="#587EEC"/>
<path opacity="0.1" d="M9.26568 101.772H39.812V143.328H11.502C11.4267 143.755 11.3545 144.184 11.2762 144.614H39.812V178.128C39.7608 178.113 39.7157 178.095 39.6675 178.077C38.8609 177.758 38.0603 177.422 37.2597 177.061L36.748 176.83C35.9454 176.452 35.1428 176.051 34.3402 175.628C34.0603 175.481 33.7804 175.328 33.5035 175.172C29.0477 172.681 24.9999 169.524 21.5005 165.811C21.3981 165.712 21.3018 165.607 21.1995 165.511C20.7119 164.982 20.2333 164.447 19.7698 163.9L19.2582 163.3C18.7104 162.63 18.1807 161.942 17.666 161.245C17.5907 161.143 17.5185 161.04 17.4403 160.944C15.3471 158.047 13.6091 154.911 12.2634 151.601C12.2213 151.502 12.1852 151.394 12.146 151.301C11.7327 150.24 11.3665 149.168 11.0475 148.087C10.909 147.633 10.7766 147.185 10.6622 146.714C10.6201 146.575 10.584 146.44 10.5509 146.305C8.8413 139.645 8.63965 132.726 8.63965 125.856C8.63965 125.054 8.63965 124.249 8.63965 123.453C8.63965 120.674 8.67276 117.877 8.72091 115.083C8.72091 114.359 8.75101 113.638 8.76606 112.911C8.8082 111.067 8.86839 109.222 8.94665 107.378C8.96471 106.864 8.98878 106.353 9.01587 105.842C9.01587 105.548 9.03092 105.254 9.06102 104.959C9.13325 103.89 9.19345 102.829 9.26568 101.772Z" fill="#587EEC"/>
<path opacity="0.1" d="M70.0723 63.0426V100.486H47.1047V63.0426H50.3793V50.3651H63.821V63.0426H70.0723Z" fill="#587EEC"/>
<path opacity="0.1" d="M70.0723 101.769H47.1077V143.325H70.0723V101.769Z" fill="#587EEC"/>
<path opacity="0.1" d="M47.1047 144.614H70.0723V179.161C67.3631 179.938 64.6023 180.524 61.8105 180.913L61.1242 180.997C60.7872 181.036 60.4531 181.069 60.122 181.102C59.7909 181.135 59.4478 181.159 59.1137 181.18H59.0084C58.8639 181.18 58.7074 181.198 58.5659 181.201H58.4124C58.2318 181.201 58.0513 181.219 57.8707 181.225C57.6148 181.24 57.359 181.243 57.0972 181.246C56.9858 181.246 56.8805 181.246 56.7691 181.246C56.5102 181.246 56.2544 181.246 55.9956 181.246H55.4267C55.2732 181.246 55.1257 181.246 54.9662 181.246L54.3853 181.225C54.0844 181.225 53.7593 181.192 53.4463 181.171L52.8684 181.129L52.1491 181.063C51.6434 181.018 51.1408 180.961 50.6442 180.892L50.0422 180.808L49.7412 180.766C49.2386 180.687 48.742 180.603 48.2364 180.507C47.8661 180.444 47.499 180.366 47.1257 180.291L47.1047 144.614Z" fill="#587EEC"/>
<path opacity="0.1" d="M213.642 58.6206H194.704V100.483H213.642V58.6206Z" fill="#587EEC"/>
<path opacity="0.1" d="M213.645 101.769V143.328H119.646V125.402H169.714V135.977H194.704V101.769H213.645Z" fill="#587EEC"/>
<path opacity="0.1" d="M213.943 189.171H213.642V216.434C210.251 216.147 206.87 215.758 203.499 215.265C188.323 213.047 173.528 208.738 159.538 202.461C155.499 200.647 151.542 198.666 147.668 196.519C141.195 192.94 134.995 188.893 129.115 184.41C127.638 183.28 126.181 182.124 124.742 180.943C123.746 180.123 122.756 179.282 121.753 178.464C121.058 177.903 120.357 177.35 119.646 176.821V144.614H194.455C194.403 144.422 194.352 144.229 194.298 144.04C194.355 144.229 194.41 144.422 194.461 144.614H213.642V189.153C213.744 189.156 213.844 189.165 213.943 189.171Z" fill="#587EEC"/>
<path opacity="0.1" d="M263.033 55.5021H250.692V51.6749H256.224V40.2742C256.704 40.4484 257.182 40.6277 257.657 40.8119V51.6749H263.033V55.5021Z" fill="#587EEC"/>
<path opacity="0.1" d="M292.763 100.486H232.182C232.182 100.486 232.182 100.486 232.203 100.501L232.176 100.486H220.938V58.6235H224.122V89.5661H238.674V71.2409H250.695V56.788H263.036V71.2529H275.057V89.5781H292.763V100.486Z" fill="#587EEC"/>
<path opacity="0.1" d="M220.938 101.769V143.328H292.763V101.769H220.938ZM312.261 192.247L312.36 159.352H292.763V144.632H220.938V216.881C226.826 217.128 232.724 217.058 238.605 216.671H238.708C241.517 216.495 244.313 216.238 247.096 215.902H247.159C262.006 214.177 276.524 210.311 290.259 204.423" fill="#587EEC"/>
<path opacity="0.1" d="M320.926 144.614H337.681C337.534 153.052 335.836 161.341 332.122 168.995C329.031 175.355 324.736 180.916 319.662 185.773V159.337H320.926V144.614Z" fill="#587EEC"/>
<path opacity="0.1" d="M337.69 143.328H320.926V108.597H329.997C334.692 119.547 337.675 131.564 337.69 143.328Z" fill="#587EEC"/>
<path opacity="0.1" d="M213.645 70.2585H203.499V83.3836H213.645V70.2585Z" fill="#587EEC"/>
<path opacity="0.1" d="M213.645 97.4639H203.499V100.486H213.645V97.4639Z" fill="#587EEC"/>
<path opacity="0.1" d="M213.645 101.769H203.499V110.586H213.645V101.769Z" fill="#587EEC"/>
<path opacity="0.1" d="M213.645 124.669H203.499V137.794H213.645V124.669Z" fill="#587EEC"/>
<path opacity="0.1" d="M213.645 151.875H203.499V165H213.645V151.875Z" fill="#587EEC"/>
<path opacity="0.1" d="M213.642 189.153C213.744 189.153 213.844 189.153 213.943 189.171H213.642V192.22H203.499V179.08H213.642V189.153Z" fill="#587EEC"/>
<path opacity="0.1" d="M213.642 206.28V216.418C210.251 216.132 206.87 215.743 203.499 215.25V206.28H213.642Z" fill="#587EEC"/>
<path opacity="0.1" d="M163.129 142.364H119.646V143.328H163.129V142.364Z" fill="#587EEC"/>
<path opacity="0.1" d="M163.129 144.611H119.646V148.306H163.129V144.611Z" fill="#587EEC"/>
<path opacity="0.1" d="M163.129 160.419H119.646V166.361H163.129V160.419Z" fill="#587EEC"/>
<path opacity="0.1" d="M163.126 178.474V184.416H129.115C127.639 183.29 126.18 182.135 124.739 180.949C123.743 180.129 122.756 179.288 121.75 178.474H163.126Z" fill="#587EEC"/>
<path opacity="0.1" d="M163.126 196.525V202.461H159.535C155.5 200.645 151.544 198.663 147.668 196.516L163.126 196.525Z" fill="#587EEC"/>
<path opacity="0.1" d="M247.168 105.797H238.608V114.341H247.168V105.797Z" fill="#587EEC"/>
<path opacity="0.1" d="M61.8316 65.9897H53.2717V74.5335H61.8316V65.9897Z" fill="#587EEC"/>
<path opacity="0.1" d="M61.8316 85.835H53.2717V94.3787H61.8316V85.835Z" fill="#587EEC"/>
<path opacity="0.1" d="M61.8316 105.68H53.2717V114.224H61.8316V105.68Z" fill="#587EEC"/>
<path opacity="0.1" d="M61.8316 125.523H53.2717V134.066H61.8316V125.523Z" fill="#587EEC"/>
<path opacity="0.1" d="M61.8316 145.368H53.2717V153.912H61.8316V145.368Z" fill="#587EEC"/>
<path opacity="0.1" d="M61.8316 165.213H53.2717V173.757H61.8316V165.213Z" fill="#587EEC"/>
<path opacity="0.1" d="M279.845 105.797H271.285V114.341H279.845V105.797Z" fill="#587EEC"/>
<path opacity="0.1" d="M247.168 126.871H238.608V135.415H247.168V126.871Z" fill="#587EEC"/>
<path opacity="0.1" d="M279.845 126.871H271.285V135.415H279.845V126.871Z" fill="#587EEC"/>
<path opacity="0.1" d="M247.168 147.942H238.608V156.486H247.168V147.942Z" fill="#587EEC"/>
<path opacity="0.1" d="M279.845 147.942H271.285V156.486H279.845V147.942Z" fill="#587EEC"/>
<path opacity="0.1" d="M247.168 169.016H238.608V177.56H247.168V169.016Z" fill="#587EEC"/>
<path opacity="0.1" d="M279.845 169.016H271.285V177.56H279.845V169.016Z" fill="#587EEC"/>
<path opacity="0.1" d="M247.168 190.09H238.608V198.634H247.168V190.09Z" fill="#587EEC"/>
<path opacity="0.1" d="M279.845 190.09H271.285V198.634H279.845V190.09Z" fill="#587EEC"/>
<path opacity="0.1" d="M238.608 216.671V211.161H247.165V215.887L238.608 216.671Z" fill="#587EEC"/>
<path opacity="0.1" d="M10.5178 89.8065V94.6942H39.812V89.8065H10.5178ZM13.4373 94.3878H11.0475V90.1069H13.4553L13.4373 94.3878ZM16.3537 94.3878H13.9459V90.1069H16.3537V94.3878ZM19.2642 94.3878H16.8564V90.1069H19.2642V94.3878ZM22.1807 94.3878H19.7759V90.1069H22.1837L22.1807 94.3878ZM25.0941 94.3878H22.6863V90.1069H25.0941V94.3878ZM28.0106 94.3878H25.6028V90.1069H28.0106V94.3878ZM30.9271 94.3878H28.5193V90.1069H30.9271V94.3878ZM33.8406 94.3878H31.4327V90.1069H33.8406V94.3878ZM36.754 94.3878H34.3462V90.1069H36.754V94.3878ZM39.6675 94.3878H37.2597V90.1069H39.6675V94.3878Z" fill="#587EEC"/>
<path opacity="0.1" d="M10.5178 104.028V108.916H39.812V104.028H10.5178ZM13.4373 108.606H11.0475V104.338H13.4553L13.4373 108.606ZM16.3537 108.606H13.9459V104.338H16.3537V108.606ZM19.2642 108.606H16.8564V104.338H19.2642V108.606ZM22.1807 108.606H19.7759V104.338H22.1837L22.1807 108.606ZM25.0941 108.606H22.6863V104.338H25.0941V108.606ZM28.0106 108.606H25.6028V104.338H28.0106V108.606ZM30.9271 108.606H28.5193V104.338H30.9271V108.606ZM33.8406 108.606H31.4327V104.338H33.8406V108.606ZM36.754 108.606H34.3462V104.338H36.754V108.606ZM39.6675 108.606H37.2597V104.338H39.6675V108.606Z" fill="#587EEC"/>
<path opacity="0.1" d="M10.5178 118.255V123.152H39.812V118.255H10.5178ZM13.4373 122.834H11.0475V118.562H13.4553L13.4373 122.834ZM16.3537 122.834H13.9459V118.562H16.3537V122.834ZM19.2642 122.834H16.8564V118.562H19.2642V122.834ZM22.1807 122.834H19.7759V118.562H22.1837L22.1807 122.834ZM25.0941 122.834H22.6863V118.562H25.0941V122.834ZM28.0106 122.834H25.6028V118.562H28.0106V122.834ZM30.9271 122.834H28.5193V118.562H30.9271V122.834ZM33.8406 122.834H31.4327V118.562H33.8406V122.834ZM36.754 122.834H34.3462V118.562H36.754V122.834ZM39.6675 122.834H37.2597V118.562H39.6675V122.834Z" fill="#587EEC"/>
<path opacity="0.1" d="M10.5178 132.483V137.365H39.812V132.483H10.5178ZM13.4373 137.061H11.0475V132.786H13.4553L13.4373 137.061ZM16.3537 137.061H13.9459V132.786H16.3537V137.061ZM19.2642 137.061H16.8564V132.786H19.2642V137.061ZM22.1807 137.061H19.7759V132.786H22.1837L22.1807 137.061ZM25.0941 137.061H22.6863V132.786H25.0941V137.061ZM28.0106 137.061H25.6028V132.786H28.0106V137.061ZM30.9271 137.061H28.5193V132.786H30.9271V137.061ZM33.8406 137.061H31.4327V132.786H33.8406V137.061ZM36.754 137.061H34.3462V132.786H36.754V137.061ZM39.6675 137.061H37.2597V132.786H39.6675V137.061Z" fill="#587EEC"/>
<path opacity="0.1" d="M10.6442 146.708C10.7615 147.167 10.894 147.627 11.0324 148.081V147.014H13.4403V151.286H12.1521C12.1912 151.385 12.2303 151.493 12.2694 151.586H39.812V146.708H10.6442ZM16.3628 151.286H13.9549V147.014H16.3628V151.286ZM19.2732 151.286H16.8654V147.014H19.2732V151.286ZM22.1897 151.286H19.7758V147.014H22.1837L22.1897 151.286ZM25.1032 151.286H22.6953V147.014H25.1032V151.286ZM28.0196 151.286H25.6118V147.014H28.0196V151.286ZM30.9361 151.286H28.5283V147.014H30.9361V151.286ZM33.8496 151.286H31.4418V147.014H33.8496V151.286ZM36.7631 151.286H34.3552V147.014H36.7631V151.286ZM39.6765 151.286H37.2687V147.014H39.6765V151.286Z" fill="#587EEC"/>
<path opacity="0.1" d="M17.4463 160.935C17.5215 161.031 17.5938 161.139 17.672 161.236H19.2642V163.287C19.4358 163.492 19.6043 163.696 19.7789 163.888V161.224H22.1867V165.51H21.2115C21.3078 165.61 21.4011 165.715 21.5125 165.811H39.821V160.935H17.4463ZM25.0942 165.51H22.6863V161.242H25.0942V165.51ZM28.0106 165.51H25.6028V161.242H28.0106V165.51ZM30.9271 165.51H28.5193V161.242H30.9271V165.51ZM33.8406 165.51H31.4328V161.242H33.8406V165.51ZM36.7541 165.51H34.3462V161.242H36.7541V165.51ZM39.6675 165.51H37.2597V161.242H39.6675V165.51Z" fill="#587EEC"/>
<path opacity="0.1" d="M33.5154 175.16C33.7893 175.316 34.0692 175.46 34.3522 175.616V175.466H36.76V176.818L37.2717 177.055V175.466H39.6795V178.065C39.7257 178.088 39.7741 178.106 39.824 178.119V175.16H33.5154Z" fill="#587EEC"/>
<path opacity="0.1" d="M232.182 100.486H232.2H232.182ZM213.642 189.15H213.943H213.642ZM194.298 144.037C194.355 144.229 194.404 144.421 194.458 144.611C194.41 144.421 194.358 144.229 194.298 144.037ZM232.182 100.477H232.2H232.182ZM50.3914 55.4932V56.7759H63.8361V55.4932H50.3914ZM213.642 189.15H213.943H213.642ZM194.298 144.037C194.355 144.229 194.404 144.421 194.458 144.611C194.41 144.421 194.358 144.229 194.298 144.037ZM232.182 100.477H232.2H232.182ZM213.642 189.141H213.943H213.642ZM194.298 144.037C194.355 144.229 194.404 144.421 194.458 144.611C194.41 144.421 194.358 144.229 194.298 144.037Z" fill="#587EEC"/>
<path d="M144.032 114.23C144.032 114.23 142.846 114.065 142.846 112.34C142.846 110.616 141.997 107.395 141.997 107.395C141.997 107.38 141.263 101.787 140.248 100.898C139.234 100.008 137.931 94.7871 137.931 94.7871C137.931 94.7871 137.708 91.9542 137.254 91.3444C136.799 90.7345 136.185 89.2415 135.279 87.1116C134.373 84.9816 130.596 83.5066 130.596 83.5066C130.596 83.5066 123.767 79.5532 121.832 78.2644C121.656 78.1585 121.491 78.0347 121.341 77.8949C121.004 77.4533 119.535 77.4443 119.535 77.4443C119.382 76.4769 119.234 75.3654 119.186 74.359C119.186 74.2509 119.186 74.1427 119.171 74.0346C121.329 72.7614 122.954 70.7539 123.749 68.3808C123.785 68.2666 123.815 68.1465 123.848 68.0323C123.977 67.9898 124.096 67.9208 124.197 67.8298C124.299 67.7387 124.379 67.6276 124.435 67.5036C124.61 67.1161 124.613 66.6624 124.829 66.3019C125.082 65.8753 125.564 65.647 125.943 65.3256C126.9 64.5145 127.147 63.1476 127.102 61.9039C127.072 60.8975 126.909 59.8821 126.972 58.8817L126.99 58.6294C127.008 58.4792 127.029 58.329 127.057 58.1848C127.204 57.4397 127.526 56.7368 127.707 55.9978C127.887 55.2587 127.905 54.4266 127.484 53.7897C126.867 52.8554 125.582 52.6692 124.453 52.573C123.174 52.4649 122.03 52.6061 121.212 51.5456C120.828 50.9914 120.397 50.4717 119.923 49.9925C119.755 49.8363 118.117 48.8389 118.117 48.7728C116.519 48.0341 114.708 47.8954 113.016 48.3823C112.167 48.6286 111.367 49.0312 110.506 49.2325C108.649 49.6711 106.512 49.1964 104.935 50.2569C104.056 50.8577 103.529 51.813 103.035 52.7443C102.634 53.5113 102.227 54.2774 101.813 55.0424C101.148 56.3012 100.471 57.5809 100.191 58.9749C100.132 59.2782 100.096 59.5854 100.083 59.8941V59.9091C100.083 60.0203 100.083 60.1314 100.083 60.2426V60.3838C100.083 60.4889 100.083 60.5911 100.101 60.6842C100.119 60.7773 100.116 60.8074 100.125 60.8705C100.134 60.9335 100.149 61.0747 100.167 61.1709C100.185 61.267 100.221 61.4352 100.257 61.5674C100.272 61.6245 100.294 61.6786 100.312 61.7326C100.342 61.8348 100.378 61.9339 100.417 62.0331C100.438 62.0841 100.459 62.1382 100.483 62.1893C100.528 62.2944 100.582 62.3966 100.637 62.4897C100.661 62.5317 100.679 62.5708 100.703 62.6099C100.787 62.7496 100.879 62.884 100.98 63.0124C101.624 63.8145 102.572 64.3252 103.273 65.0762C103.273 65.1063 103.273 65.1363 103.273 65.1634C103.273 65.2475 103.273 65.3286 103.273 65.4127C103.31 67.0877 103.757 68.7282 104.574 70.1916C105.392 71.6549 106.555 72.8969 107.962 73.8093C107.962 73.9234 107.978 74.0406 107.984 74.1547C108.042 75.0465 108.031 75.9414 107.95 76.8314C107.828 76.6873 107.674 76.5726 107.502 76.4956C107.329 76.4187 107.14 76.3815 106.951 76.3868C106.822 76.3805 106.692 76.3916 106.566 76.4199L106.539 76.3988V76.4259C105.877 76.5881 105.061 77.276 104.282 79.2317C104.282 79.2317 101.91 81.8994 100.104 81.7882C98.2981 81.6771 93.7262 84.5641 93.7262 84.5641C93.7262 84.5641 89.2657 87.454 88.3086 90.3981C87.7736 92.0675 87.1322 93.7011 86.3884 95.2888L80.8744 106.629L79.8571 115.627C79.8571 115.627 80.4199 119.628 80.3086 120.238C80.1972 120.848 82.6231 126.349 82.6231 126.349C82.6231 126.349 90.6382 140.405 93.9128 141.126L94.1476 140.961C94.2877 141.034 94.4363 141.089 94.59 141.126L95.2642 140.651C95.3047 141.18 95.2875 141.712 95.213 142.237C94.7616 143.625 95.3816 152.683 96.1701 154.458C96.9587 156.234 96.6788 179.513 96.6788 179.513L96.5674 181.567C96.5674 181.567 96.5674 181.634 96.5945 181.748L96.5674 182.234L96.6487 182.276C96.7331 182.928 96.7056 183.59 96.5674 184.232C96.2845 185.133 96.1701 187.681 96.1701 187.681C96.1701 187.681 93.9158 202.065 94.9843 204.955C96.0528 207.845 96.9617 211.011 96.9617 211.011C96.9617 211.011 98.0904 214.616 97.0159 215.232C95.9414 215.848 92.8865 216.881 93.5155 218.383C94.0874 219.771 96.2574 223.49 96.5795 224.034L96.5524 224.319L96.1099 229.105C96.1816 229.737 96.3533 230.353 96.6186 230.931C97.1032 231.974 98.0452 233.055 99.8361 232.938C100.137 232.917 100.486 232.881 100.823 232.836C104.101 232.397 108.137 230.937 108.137 230.937C107.927 230.805 107.735 230.646 107.565 230.466C107.404 230.31 107.276 230.123 107.19 229.917C107.104 229.71 107.06 229.488 107.063 229.264C107.111 228.393 105.476 224.241 105.07 223.22C105.007 223.073 104.974 222.988 104.974 222.988C104.974 222.988 108.7 219.101 108.08 215.655C108.08 215.655 103.956 213.252 105.314 211.933C106.671 210.614 109.097 206.826 109.097 206.826C109.097 206.826 109.209 192.662 109.097 190.547C108.981 189.079 109.051 187.602 109.305 186.152C109.35 185.932 109.404 185.719 109.461 185.509C111.339 185.789 113.234 185.932 115.132 185.939C115.824 185.939 116.528 185.938 117.239 185.896C117.239 186.097 117.248 186.313 117.266 186.545C117.422 190.054 117.714 196.207 117.952 198.493C118.289 201.77 120.152 210.602 120.152 210.602C120.152 210.602 116.598 212.88 120.772 218.491C120.772 218.491 120.772 220.525 120.495 220.819C120.2 221.782 119.961 222.761 119.782 223.752C119.607 224.809 119.535 225.878 119.818 226.434C120.495 227.762 124.558 227.654 124.558 227.654L124.658 227.636C125.425 227.557 126.2 227.63 126.938 227.853C127.677 228.075 128.363 228.441 128.959 228.931C130.503 230.168 136.363 229.625 139.535 229.231C140.778 229.075 141.609 228.931 141.609 228.931C141.649 228.79 141.663 228.644 141.651 228.498C141.618 227.72 141.007 226.014 136.865 224.491C136.865 224.491 132.971 221.877 133.025 219.6H132.944H132.492C132.82 219.582 133.031 219.6 133.031 219.6C133.031 219.6 131.505 214.042 132.128 213.592C132.751 213.141 130.885 206.982 130.885 206.982C130.885 206.982 129.817 196.648 129.759 195.924C129.762 195.303 129.856 194.685 130.039 194.092L129.759 188.426C129.759 188.426 129.705 186.542 129.759 185.929C129.75 185.398 129.707 184.867 129.63 184.34C129.603 184.13 129.576 183.911 129.546 183.694C131.005 183.325 131.953 182.982 131.953 182.982L131.785 163.26C133.025 160.857 133.254 155.585 133.248 151.845C133.248 149.441 133.139 147.663 133.139 147.663L134.834 144.902C134.834 144.902 135.225 141.598 134.605 140.874C134.331 140.546 134.455 140.207 134.68 139.927C134.798 139.834 134.921 139.75 135.051 139.675C135.051 139.675 135.032 139.648 135.011 139.609C135.13 139.51 135.255 139.421 135.388 139.341C135.388 139.341 134.786 138.41 135.324 138.017C135.83 138.359 136.282 138.617 136.625 138.828C136.601 139.047 136.576 139.173 136.576 139.173L136.721 138.873C137.052 139.059 137.254 139.173 137.254 139.173C137.254 139.173 139.908 133.895 139.851 133.117C139.794 132.339 141.657 129.061 141.657 129.061C141.657 129.061 141.883 127.34 142.9 126.619C143.917 125.898 143.689 120.674 143.689 120.674C143.689 120.674 143.972 117.952 144.649 116.84C145.326 115.729 144.032 114.23 144.032 114.23ZM93.2386 111.914L93.2898 113.172C92.9888 112.689 92.7721 112.34 92.7721 112.34L93.2386 111.914Z" fill="url(#paint0_linear_6_207)"/>
<path d="M137.398 136.893L136.748 139.657C136.748 139.657 131.541 137.004 130.602 133.634C129.663 130.263 132.173 128.983 132.173 128.983L137.025 131.035L137.398 136.893Z" fill="white"/>
<path opacity="0.1" d="M137.398 136.893L136.748 139.657C136.748 139.657 131.541 137.004 130.602 133.634C129.663 130.263 132.173 128.983 132.173 128.983L137.025 131.035L137.398 136.893Z" fill="black"/>
<path d="M108.176 230.956C108.176 230.956 103.361 232.722 100.05 232.944C98.2921 233.061 97.3681 231.986 96.8925 230.95C96.6328 230.373 96.4652 229.76 96.3959 229.132L96.8263 224.37L97.0551 221.835L104.089 220.011L105.085 223.052L105.178 223.283C105.579 224.298 107.183 228.429 107.135 229.291C107.133 229.512 107.176 229.731 107.26 229.935C107.345 230.139 107.47 230.323 107.628 230.478C107.79 230.66 107.974 230.82 108.176 230.956Z" fill="white"/>
<path d="M141.07 228.534C141.082 228.679 141.068 228.824 141.028 228.964C141.028 228.964 130.729 230.679 128.622 228.964C128.028 228.463 127.335 228.091 126.589 227.873C125.843 227.655 125.059 227.594 124.288 227.696C124.288 227.696 120.303 227.804 119.637 226.495C119.361 225.945 119.433 224.878 119.604 223.827C119.779 222.842 120.013 221.868 120.303 220.91L120.462 220.784L121.41 220.024L132.51 219.696H132.595C132.54 221.961 136.363 224.56 136.363 224.56C140.423 226.062 141.022 227.759 141.07 228.534Z" fill="white"/>
<path opacity="0.1" d="M141.07 228.534C141.081 228.679 141.065 228.824 141.025 228.964C141.025 228.964 130.729 230.679 128.622 228.964C128.028 228.463 127.336 228.092 126.59 227.873C125.844 227.655 125.061 227.595 124.291 227.696C124.291 227.696 120.303 227.804 119.64 226.494C119.364 225.942 119.433 224.878 119.604 223.827C121.139 223.98 123.562 224.362 124.513 225.272C125.952 226.657 128.39 228.039 129.886 228.147C131.057 228.222 138.06 228.444 141.07 228.534Z" fill="black"/>
<path opacity="0.1" d="M108.176 230.956C108.176 230.956 103.361 232.722 100.05 232.944C98.2921 233.061 97.3681 231.986 96.8956 230.947C98.1206 231.358 99.8211 231.791 100.715 231.394C101.774 230.926 105.531 230.622 107.638 230.493C107.798 230.668 107.979 230.823 108.176 230.956Z" fill="black"/>
<path d="M115.321 88.6047C111.349 87.0636 106.238 81.9716 107.514 79.5924C107.797 78.9919 107.966 78.3439 108.011 77.6817C108.093 76.7828 108.105 75.8788 108.047 74.978C107.957 73.5027 107.779 72.034 107.514 70.58C107.514 70.58 119.917 70.8593 119.195 72.6828C118.984 73.2176 118.951 74.1459 119.008 75.1853C119.066 76.2247 119.216 77.3993 119.373 78.3937C119.589 79.7576 119.806 80.797 119.806 80.797C119.806 80.797 119.048 81.8575 118.602 81.9145C118.157 81.9716 121.022 90.8008 115.321 88.6047Z" fill="#CF6F80"/>
<path opacity="0.1" d="M105.169 223.283L105.076 223.385C101.368 218.909 96.8835 224.488 96.8835 224.488L96.8173 224.37L97.0461 221.835L104.08 220.011L105.076 223.052L105.169 223.283Z" fill="black"/>
<path opacity="0.1" d="M132.598 220.012C132.598 220.012 129.889 219.954 128.444 221.228C126.999 222.502 120.017 221.505 120.318 221.228C120.407 221.091 120.461 220.934 120.474 220.772L121.422 220.012L132.522 219.684C132.564 219.885 132.598 220.012 132.598 220.012Z" fill="black"/>
<path d="M109.783 184.86C109.582 185.358 109.429 185.874 109.326 186.401C109.075 187.845 109.005 189.314 109.118 190.775C109.23 192.878 109.118 206.971 109.118 206.971C109.118 206.971 106.738 210.729 105.41 212.054C104.083 213.378 108.119 215.758 108.119 215.758C108.721 219.182 105.073 223.052 105.073 223.052C101.365 218.576 96.8805 224.157 96.8805 224.157C96.8805 224.157 94.4426 219.951 93.8346 218.449C93.2267 216.947 96.2154 215.908 97.2658 215.298C98.3162 214.688 97.2146 211.092 97.2146 211.092C97.2146 211.092 96.3267 207.941 95.2733 205.066C94.2199 202.191 96.4351 187.879 96.4351 187.879C96.4351 187.879 96.5495 185.338 96.8234 184.452C96.9615 183.812 96.989 183.154 96.9046 182.505C96.8866 182.286 96.8655 182.102 96.8504 181.979C96.8354 181.856 96.8234 181.799 96.8234 181.799L96.8655 181.727L98.3704 178.927C98.3704 178.927 110.506 183.097 109.783 184.86Z" fill="#587EEC"/>
<path d="M132.598 219.681C132.598 219.681 129.889 219.624 128.444 220.883C126.999 222.142 120.017 221.159 120.318 220.883C120.619 220.607 120.595 218.561 120.595 218.561C116.498 212.979 119.993 210.714 119.993 210.714C119.993 210.714 118.163 201.927 117.832 198.667C117.6 196.39 117.314 190.271 117.16 186.777C117.094 185.275 117.055 184.241 117.055 184.241L120.402 183.569L120.832 183.481L128.905 181.865C128.905 181.865 129.127 183.367 129.278 184.596C129.353 185.121 129.395 185.649 129.404 186.179C129.35 186.78 129.404 188.661 129.404 188.661L129.678 194.299C129.499 194.891 129.407 195.505 129.404 196.123C129.458 196.841 130.509 207.121 130.509 207.121C130.509 207.121 132.336 213.255 131.713 213.697C131.09 214.139 132.598 219.681 132.598 219.681Z" fill="#587EEC"/>
<path opacity="0.1" d="M119.195 72.6828C118.984 73.2176 118.951 74.1459 119.008 75.1853C117.347 76.1839 115.437 76.6944 113.498 76.6583C111.559 76.6221 109.67 76.0408 108.047 74.981C107.957 73.5047 107.78 72.035 107.514 70.58C107.514 70.58 119.917 70.8533 119.195 72.6828Z" fill="black"/>
<path d="M123.99 66.0438C123.992 67.1263 123.821 68.2023 123.484 69.2311C122.73 71.5364 121.184 73.5014 119.118 74.7788C117.053 76.0562 114.602 76.5638 112.198 76.2118C109.794 75.8598 107.593 74.671 105.982 72.8554C104.371 71.0398 103.456 68.7144 103.397 66.2901C103.397 66.206 103.397 66.1279 103.397 66.0438C103.373 64.6792 103.622 63.3236 104.129 62.0561C104.636 60.7886 105.391 59.6345 106.35 58.6613C107.308 57.688 108.452 56.915 109.713 56.3873C110.974 55.8596 112.327 55.5879 113.695 55.5879C115.062 55.5879 116.416 55.8596 117.677 56.3873C118.938 56.915 120.081 57.688 121.039 58.6613C121.998 59.6345 122.753 60.7886 123.26 62.0561C123.767 63.3236 124.016 64.6792 123.993 66.0438H123.99Z" fill="#CF6F80"/>
<path opacity="0.1" d="M115.321 88.6048C111.349 87.0637 106.238 81.9717 107.514 79.5924C107.797 78.992 107.966 78.344 108.011 77.6818L113.449 82.1429L116.814 84.8977L119.373 78.3967C119.589 79.7606 119.806 80.8 119.806 80.8C119.806 80.8 119.048 81.8605 118.602 81.9176C118.157 81.9747 121.022 90.8008 115.321 88.6048Z" fill="black"/>
<path d="M129.386 108.321L124.844 184.476L118.921 184.863L103.583 140.705L106.099 88.2803L106.629 77.2041L113.449 82.7948L116.817 85.5496L119.451 78.8594L124.348 83.1192L129.386 108.321Z" fill="#587EEC"/>
<path opacity="0.1" d="M109.783 184.86C109.582 185.358 109.429 185.874 109.326 186.401C105.016 185.737 100.83 184.432 96.9076 182.529L96.8264 182.487L96.8534 182.003L96.8685 181.751L98.3734 178.951C98.3734 178.951 110.506 183.097 109.783 184.86Z" fill="black"/>
<path opacity="0.1" d="M120.471 186.413C119.369 186.6 118.258 186.727 117.142 186.792C117.076 185.29 117.037 184.256 117.037 184.256L120.384 183.583L120.471 186.413Z" fill="black"/>
<path opacity="0.1" d="M129.26 184.611C127.12 185.167 123.815 185.792 120.856 185.401L120.814 183.496L128.887 181.88C128.887 181.88 129.109 183.367 129.26 184.611Z" fill="black"/>
<path opacity="0.1" d="M120.802 185.749C108.462 187.852 97.1604 181.823 97.1604 181.823L97.2688 179.78C97.2688 179.78 97.5487 156.621 96.7722 154.846C95.9956 153.07 95.3907 144.067 95.8301 142.685C96.2695 141.303 94.2259 120.581 94.2259 120.581L93.8948 112.169L81.7774 107.269L87.195 95.9979C87.9268 94.4176 88.5561 92.792 89.0791 91.1312C90.0212 88.2052 94.3944 85.3303 94.3944 85.3303C94.3944 85.3303 98.879 82.4583 100.652 82.5665C102.425 82.6746 104.748 80.025 104.748 80.025C106.464 75.66 108.017 77.6367 108.017 77.6367C108.017 77.844 108.017 77.6367 107.932 78.2826C107.33 83.0742 117.666 98.215 117.814 98.4824L118.798 122.413L119.794 152.698L120.802 185.749Z" fill="black"/>
<path d="M120.471 185.749C108.131 187.852 96.8263 181.823 96.8263 181.823L96.9376 179.78C96.9376 179.78 97.2175 156.621 96.438 154.846C95.6585 153.07 95.0565 144.067 95.499 142.685C95.9414 141.303 93.8947 120.581 93.8947 120.581L93.5607 112.169L81.4373 107.251L86.8549 95.98C87.585 94.399 88.2143 92.7735 88.739 91.1133C89.678 88.1873 94.0543 85.3123 94.0543 85.3123C94.0543 85.3123 98.5388 82.4404 100.309 82.5485C102.078 82.6567 104.405 80.007 104.405 80.007C106.123 75.642 108.017 77.6187 108.017 77.6187C108.017 77.826 107.836 77.9191 107.932 78.2646C109.257 82.912 117.335 98.197 117.482 98.4644L118.479 122.395L119.475 152.68L120.471 185.749Z" fill="white"/>
<path opacity="0.1" d="M117.145 99.1463C115.818 98.5936 108.787 90.5815 108.787 90.5815V88.758C108.531 88.1572 107.011 88.5237 105.777 88.9443L106.307 77.868L106.909 78.3667C108.227 83.0111 116.992 98.8789 117.145 99.1463Z" fill="black"/>
<path d="M117.479 98.4824C116.149 97.9296 109.118 89.9176 109.118 89.9176V88.0941C108.862 87.4933 107.343 87.8598 106.109 88.2803L106.641 77.2041L107.243 77.7028C108.564 82.3472 117.332 98.218 117.479 98.4824Z" fill="white"/>
<path opacity="0.1" d="M97.1604 138.44C97.3259 138.44 105.741 137.557 105.741 137.557C105.741 137.557 110.837 147.558 110.503 149.991C110.169 152.424 109.564 154.578 107.514 154.197C105.464 153.815 96.4832 154.497 96.4832 154.497L97.1604 138.44Z" fill="black"/>
<path d="M96.8263 137.777C96.9918 137.777 105.407 136.893 105.407 136.893C105.407 136.893 110.5 146.897 110.169 149.327C109.838 151.758 109.227 153.915 107.18 153.533C105.133 153.152 96.1491 153.834 96.1491 153.834L96.8263 137.777Z" fill="white"/>
<path d="M103.168 133.081C103.168 133.081 110.891 137.224 111.057 138.488C111.222 139.753 107.126 137.936 106.241 137.716C105.659 137.576 105.066 137.484 104.468 137.44L98.566 137.599L103.168 133.081Z" fill="#CF6F80"/>
<path opacity="0.1" d="M114.99 99.6629C115.439 99.6629 115.803 99.2997 115.803 98.8518C115.803 98.4038 115.439 98.0406 114.99 98.0406C114.542 98.0406 114.178 98.4038 114.178 98.8518C114.178 99.2997 114.542 99.6629 114.99 99.6629Z" fill="black"/>
<path d="M114.99 99.3327C115.439 99.3327 115.803 98.9695 115.803 98.5216C115.803 98.0736 115.439 97.7104 114.99 97.7104C114.542 97.7104 114.178 98.0736 114.178 98.5216C114.178 98.9695 114.542 99.3327 114.99 99.3327Z" fill="#3F3D56"/>
<path opacity="0.1" d="M116.486 134.775C116.935 134.775 117.299 134.412 117.299 133.964C117.299 133.516 116.935 133.153 116.486 133.153C116.037 133.153 115.674 133.516 115.674 133.964C115.674 134.412 116.037 134.775 116.486 134.775Z" fill="black"/>
<path d="M116.486 134.442C116.935 134.442 117.299 134.079 117.299 133.631C117.299 133.183 116.935 132.82 116.486 132.82C116.037 132.82 115.674 133.183 115.674 133.631C115.674 134.079 116.037 134.442 116.486 134.442Z" fill="#3F3D56"/>
<path opacity="0.1" d="M115.8 117.219C116.249 117.219 116.613 116.856 116.613 116.408C116.613 115.96 116.249 115.597 115.8 115.597C115.351 115.597 114.987 115.96 114.987 116.408C114.987 116.856 115.351 117.219 115.8 117.219Z" fill="black"/>
<path d="M115.8 116.889C116.249 116.889 116.613 116.526 116.613 116.078C116.613 115.63 116.249 115.267 115.8 115.267C115.351 115.267 114.987 115.63 114.987 116.078C114.987 116.526 115.351 116.889 115.8 116.889Z" fill="#3F3D56"/>
<path d="M134.533 137.272C134.533 137.272 135.087 138.101 134.533 138.488C133.979 138.876 134.587 139.813 134.587 139.813C134.587 139.813 133.206 140.621 133.814 141.348C134.422 142.075 134.036 145.359 134.036 145.359L132.375 148.105C132.375 148.105 132.474 149.874 132.48 152.265C132.48 155.996 132.261 161.242 131.045 163.633L131.213 183.253C131.213 183.253 125.395 185.374 120.525 184.728L119.803 153.245C119.803 153.245 120.856 135.391 121.245 131.966C121.472 130.188 121.564 128.396 121.522 126.604C121.522 126.604 121.356 121.245 120.799 118.757C120.799 118.757 120.197 107.981 120.137 104.998C120.11 103.571 120.185 99.4076 120.27 95.4481C120.363 91.1192 120.468 87.0365 120.468 87.0365L119.37 78.3606C119.37 78.3606 120.468 78.2495 120.799 78.6911C120.948 78.8293 121.109 78.9531 121.281 79.0606C123.177 80.3403 129.877 84.2757 129.877 84.2757C129.877 84.2757 133.585 85.7478 134.473 87.8567C135.361 89.9656 135.978 91.4616 136.408 92.0625C136.838 92.6633 137.073 95.4872 137.073 95.4872C137.073 95.4872 138.349 100.684 139.346 101.565C140.342 102.445 141.07 108.044 141.07 108.044L132.267 114.954C132.267 114.954 131.493 126.448 131.327 126.892C131.162 127.337 134.533 137.272 134.533 137.272Z" fill="white"/>
<path d="M134.867 137.272C134.867 137.272 135.418 138.101 134.867 138.489C134.316 138.876 134.918 139.813 134.918 139.813C134.918 139.813 133.546 140.63 134.148 141.357C134.75 142.084 134.37 145.368 134.37 145.368L132.709 148.114C132.709 148.114 132.808 149.883 132.817 152.275C132.817 156.006 132.598 161.251 131.382 163.642L131.547 183.262C131.547 183.262 125.72 185.383 120.856 184.737L120.137 153.254C120.137 153.254 121.19 135.4 121.579 131.976C121.806 130.198 121.898 128.405 121.853 126.613C121.853 126.613 121.687 121.254 121.133 118.766C121.133 118.766 120.531 107.991 120.468 105.007C120.441 103.581 120.519 99.4168 120.601 95.4574C120.694 91.1284 120.799 87.0458 120.799 87.0458L119.349 78.2527C119.349 78.2527 120.799 78.2527 121.133 78.7003C121.28 78.8402 121.442 78.9641 121.615 79.0698C123.511 80.3496 130.214 84.285 130.214 84.285C130.214 84.285 133.919 85.757 134.807 87.8659C135.695 89.9748 136.312 91.4709 136.745 92.0717C137.178 92.6725 137.407 95.4964 137.407 95.4964C137.407 95.4964 138.683 100.694 139.68 101.574C140.676 102.454 141.395 108.042 141.395 108.042L132.592 114.951C132.592 114.951 131.818 126.445 131.649 126.89C131.481 127.334 134.867 137.272 134.867 137.272Z" fill="white"/>
<path opacity="0.1" d="M124.324 89.5961L125.118 91.9093L120.935 96.1151C121.028 91.7891 121.133 87.7035 121.133 87.7035L119.683 78.9104C119.683 78.9104 121.133 78.9104 121.467 79.358C121.614 79.4975 121.775 79.6205 121.949 79.7245L125.507 89.9686L124.324 89.5961Z" fill="black"/>
<path d="M123.99 88.9323L124.787 91.2455L120.604 95.4513C120.697 91.1223 120.802 87.0397 120.802 87.0397L119.349 78.2466C119.349 78.2466 120.802 78.2466 121.133 78.6942C121.281 78.8333 121.442 78.9571 121.615 79.0637L125.175 89.3048L123.99 88.9323Z" fill="white"/>
<path opacity="0.1" d="M123.99 66.0438C123.992 67.1263 123.821 68.2023 123.484 69.2311C123.427 69.24 123.369 69.2374 123.313 69.2235C123.257 69.2095 123.205 69.1846 123.159 69.15C123.081 66.4463 121.747 63.9078 120.107 61.7479C119.646 61.0957 119.088 60.5182 118.452 60.0355C117.808 59.5531 117.008 59.3271 116.206 59.4016C115.303 59.5248 114.506 60.1376 113.594 60.2157C112.39 60.3149 111.312 59.4827 110.118 59.4407C109.632 59.4453 109.153 59.5532 108.712 59.7573C108.271 59.9615 107.879 60.257 107.562 60.6243C106.935 61.3655 106.468 62.229 106.193 63.1598C105.72 64.5713 105.462 66.0458 105.428 67.5338C105.413 68.375 105.332 69.4294 104.549 69.7358C104.608 69.1172 104.538 68.4931 104.343 67.9031C104.147 67.3131 103.831 66.7699 103.415 66.3081L103.397 66.2901C103.397 66.206 103.397 66.1279 103.397 66.0438C103.373 64.6792 103.622 63.3236 104.129 62.0561C104.636 60.7886 105.391 59.6345 106.35 58.6613C107.308 57.688 108.452 56.915 109.713 56.3873C110.974 55.8596 112.327 55.5879 113.695 55.5879C115.062 55.5879 116.416 55.8596 117.677 56.3873C118.938 56.915 120.081 57.688 121.039 58.6613C121.998 59.6345 122.753 60.7886 123.26 62.0561C123.767 63.3236 124.016 64.6792 123.993 66.0438H123.99Z" fill="black"/>
<path d="M117.958 49.7224C116.394 48.9881 114.615 48.8492 112.956 49.3319C112.122 49.5782 111.336 49.9777 110.491 50.179C108.685 50.6146 106.578 50.143 105.028 51.1974C104.167 51.7982 103.649 52.7476 103.168 53.6698L101.964 55.959C101.308 57.2117 100.646 58.4854 100.372 59.8643C100.098 61.2432 100.263 62.7874 101.139 63.8959C101.777 64.704 102.719 65.2117 103.412 65.9717C103.826 66.434 104.141 66.9769 104.336 67.5662C104.53 68.1555 104.601 68.7786 104.543 69.3965C105.329 69.096 105.404 68.0386 105.422 67.1974C105.456 65.7094 105.713 64.2349 106.187 62.8234C106.461 61.8923 106.928 61.0287 107.556 60.2879C107.874 59.9209 108.266 59.6256 108.706 59.4215C109.147 59.2174 109.626 59.1093 110.111 59.1043C111.315 59.1464 112.396 59.9755 113.588 59.8764C114.491 59.8013 115.291 59.1854 116.2 59.0652C117.002 58.9895 117.803 59.2156 118.446 59.6991C119.082 60.181 119.639 60.7587 120.098 61.4115C121.741 63.5714 123.075 66.1039 123.153 68.8137C123.493 69.063 123.984 68.7385 124.152 68.354C124.321 67.9695 124.327 67.5189 124.54 67.1524C124.787 66.7288 125.26 66.5035 125.63 66.185C126.569 65.3769 126.804 64.0161 126.768 62.7814C126.732 61.5467 126.491 60.2939 126.725 59.0803C126.867 58.3352 127.186 57.6383 127.361 56.9023C127.535 56.1663 127.556 55.3401 127.144 54.7062C126.542 53.775 125.275 53.5917 124.17 53.5046C122.915 53.3964 121.792 53.5346 120.992 52.4802C120.616 51.9299 120.193 51.4133 119.728 50.9361C119.568 50.7798 117.958 49.7885 117.958 49.7224Z" fill="#512E4E"/>
<path opacity="0.1" d="M85.2447 113.073L82.0995 107.269L81.1033 116.225C81.1033 116.225 81.6571 120.202 81.5457 120.812C81.4343 121.422 83.8151 126.889 83.8151 126.889C83.8151 126.889 91.6797 140.871 94.8911 141.592L105.741 133.853L102.864 130.206C102.864 130.206 101.868 129.818 101.618 130.206C101.618 130.206 96.2756 121.031 95.7218 120.367C95.168 119.703 95.2764 118.379 95.2764 118.379C95.2764 118.379 94.4457 117.495 94.7226 116.666C94.9995 115.837 93.1183 112.962 93.1183 112.962L94.8339 111.361L85.2447 113.073Z" fill="black"/>
<path d="M82.2649 106.609L81.4342 107.27L80.438 116.225C80.438 116.225 80.9918 120.202 80.8804 120.812C80.7691 121.422 83.1528 126.89 83.1528 126.89C83.1528 126.89 91.0144 140.871 94.2258 141.592L105.079 133.853L102.199 130.206C102.199 130.206 101.202 129.819 100.953 130.206C100.953 130.206 95.6103 121.031 95.0565 120.368C94.5027 119.704 94.6141 118.379 94.6141 118.379C94.6141 118.379 93.7834 117.496 94.0603 116.666C94.3372 115.837 92.4531 112.962 92.4531 112.962L94.1686 111.361L82.2649 106.609Z" fill="white"/>
<path opacity="0.1" d="M133.814 141.691C134.415 142.421 134.036 145.698 134.036 145.698L132.375 148.444C132.375 148.444 132.474 150.217 132.48 152.605L129.687 153.476C129.435 153.555 129.167 153.572 128.907 153.526C128.646 153.481 128.4 153.374 128.19 153.214C127.979 153.055 127.81 152.847 127.696 152.609C127.582 152.371 127.527 152.109 127.535 151.845L128.017 136.34L134.533 138.828C133.979 139.212 134.587 140.156 134.587 140.156C134.587 140.156 133.206 140.961 133.814 141.691Z" fill="black"/>
<path d="M134.148 141.357C134.75 142.087 134.37 145.368 134.37 145.368L132.709 148.114C132.709 148.114 132.808 149.883 132.817 152.274L129.973 153.161C129.726 153.237 129.464 153.254 129.209 153.209C128.954 153.164 128.713 153.059 128.507 152.903C128.301 152.747 128.136 152.543 128.024 152.31C127.912 152.077 127.858 151.821 127.866 151.562L128.351 136.01L134.87 138.497C134.313 138.882 134.921 139.822 134.921 139.822C134.921 139.822 133.546 140.63 134.148 141.357Z" fill="white"/>
<path d="M136.306 133.967C136.306 133.967 135.863 136.788 134.756 136.953C133.648 137.119 133.151 141.517 132.047 141.36C130.942 141.204 131.674 137.272 131.713 136.509C131.752 135.746 130.509 132.585 131.439 131.867C132.369 131.149 135.312 131.867 135.312 131.867L136.306 133.967Z" fill="#CF6F80"/>
<path opacity="0.1" d="M138.662 112.244L140.751 108.038C140.751 108.038 141.582 111.244 141.582 112.956C141.582 114.669 142.744 114.837 142.744 114.837C142.744 114.837 144.017 116.339 143.346 117.432C142.674 118.526 142.403 121.248 142.403 121.248C142.403 121.248 142.623 126.442 141.627 127.16C140.631 127.878 140.423 129.593 140.423 129.593C140.423 129.593 138.593 132.853 138.65 133.628C138.707 134.403 136.104 139.651 136.104 139.651C136.104 139.651 137.377 133.129 129.958 130.311C129.958 130.311 129.901 128.097 130.455 127.49C131.008 126.883 131.872 126.607 131.331 123.54C130.789 120.473 131.174 116.808 131.174 116.072C131.174 115.335 132.835 110.745 132.835 110.745L138.662 112.244Z" fill="black"/>
<path d="M139.565 107.438L141.389 108.038C141.389 108.038 142.223 111.244 142.223 112.956C142.223 114.669 143.385 114.837 143.385 114.837C143.385 114.837 144.658 116.339 143.987 117.432C143.315 118.526 143.048 121.248 143.048 121.248C143.048 121.248 143.267 126.442 142.271 127.16C141.275 127.878 141.052 129.593 141.052 129.593C141.052 129.593 139.225 132.853 139.282 133.628C139.34 134.403 136.733 139.651 136.733 139.651C136.733 139.651 138.009 133.129 130.587 130.311C130.587 130.311 130.533 128.097 131.087 127.49C131.641 126.883 132.504 126.607 131.963 123.54C131.421 120.473 131.806 116.808 131.806 116.071C131.806 115.335 133.467 110.745 133.467 110.745L139.565 107.438Z" fill="white"/>
<path opacity="0.1" d="M99.2793 216.449C99.2793 216.449 102.187 214.625 104.095 215.95C106.003 217.275 99.2793 216.449 99.2793 216.449Z" fill="black"/>
<path opacity="0.1" d="M121.871 210.81C121.871 210.81 124.444 210.479 126.605 212.802C128.766 215.124 121.871 210.81 121.871 210.81Z" fill="black"/>
<g opacity="0.1">
<path opacity="0.1" d="M125.636 65.5271C125.266 65.8455 124.79 66.0738 124.543 66.4974C124.333 66.8609 124.327 67.3085 124.158 67.6991C123.99 68.0896 123.499 68.408 123.159 68.1617C123.081 65.458 121.744 62.9195 120.104 60.7565C119.645 60.1037 119.088 59.5261 118.452 59.0442C117.807 58.5608 117.006 58.3347 116.203 58.4103C115.3 58.5335 114.506 59.1463 113.594 59.2214C112.39 59.3235 111.309 58.4914 110.114 58.4493C109.629 58.4542 109.15 58.5625 108.71 58.7672C108.27 58.9718 107.878 59.2681 107.562 59.636C106.934 60.3757 106.467 61.2383 106.193 62.1685C105.72 63.58 105.462 65.0545 105.428 66.5425C105.41 67.3806 105.332 68.4261 104.555 68.7385C104.573 68.9604 104.573 69.1835 104.555 69.4054C105.338 69.105 105.416 68.0475 105.434 67.2064C105.468 65.7184 105.726 64.2438 106.199 62.8324C106.473 61.9013 106.94 61.0377 107.568 60.2969C107.885 59.93 108.276 59.6346 108.717 59.4305C109.157 59.2264 109.635 59.1183 110.121 59.1133C111.324 59.1553 112.408 59.9844 113.6 59.8853C114.503 59.8102 115.303 59.1944 116.209 59.0742C117.012 58.9986 117.813 59.2247 118.458 59.7081C119.094 60.19 119.651 60.7677 120.11 61.4204C121.75 63.5804 123.087 66.1129 123.165 68.8226C123.505 69.0719 123.996 68.7475 124.164 68.363C124.333 67.9784 124.339 67.5278 124.549 67.1613C124.796 66.7377 125.272 66.5124 125.642 66.194C126.581 65.3859 126.816 64.025 126.78 62.7903C126.78 62.7513 126.78 62.7122 126.78 62.6762C126.722 63.7456 126.437 64.8361 125.636 65.5271Z" fill="black"/>
<path opacity="0.1" d="M103.418 65.3137C102.725 64.5537 101.78 64.046 101.145 63.2409C100.611 62.5282 100.305 61.6702 100.269 60.7805C100.175 61.8923 100.486 63.0008 101.145 63.9018C101.78 64.7099 102.725 65.2176 103.418 65.9777C104.082 66.7211 104.481 67.6635 104.552 68.6573C104.598 68.0525 104.522 67.4446 104.327 66.87C104.132 66.2955 103.823 65.7661 103.418 65.3137Z" fill="black"/>
<path opacity="0.1" d="M127.367 56.2442C127.189 56.9802 126.873 57.6802 126.728 58.4222C126.643 58.9181 126.612 59.4217 126.635 59.9243C126.645 59.638 126.676 59.3528 126.728 59.0711C126.873 58.3261 127.189 57.6291 127.367 56.8931C127.47 56.4872 127.504 56.0666 127.466 55.6494C127.447 55.8498 127.414 56.0486 127.367 56.2442Z" fill="black"/>
</g>
<path opacity="0.1" d="M45.049 228.663C61.246 228.663 74.3763 226.559 74.3763 223.962C74.3763 221.365 61.246 219.26 45.049 219.26C28.852 219.26 15.7217 221.365 15.7217 223.962C15.7217 226.559 28.852 228.663 45.049 228.663Z" fill="#587EEC"/>
<path d="M45.9941 133.898H44.107V176.308H45.9941V133.898Z" fill="#535461"/>
<path d="M57.8526 176.178L57.7352 178.089L57.5667 180.793L57.4975 181.916L57.3319 184.62L57.2597 185.744L57.0911 188.447L55.189 219.11C55.1063 220.43 54.5231 221.668 53.558 222.573C52.5929 223.479 51.3184 223.983 49.9941 223.983H40.1039C38.7799 223.983 37.5058 223.478 36.5412 222.573C35.5766 221.668 34.994 220.429 34.912 219.11L33.0189 188.426L32.8504 185.723L32.7811 184.599L32.6126 181.895L32.5434 180.772L32.3748 178.068L32.2544 176.157C32.2335 175.79 32.2881 175.422 32.4148 175.076C32.5416 174.73 32.7378 174.413 32.9914 174.146C33.2451 173.878 33.5508 173.665 33.8899 173.52C34.229 173.375 34.5942 173.3 34.9632 173.3H55.192C55.5596 173.304 55.9227 173.382 56.2588 173.531C56.5949 173.679 56.897 173.895 57.1463 174.165C57.3956 174.434 57.5869 174.752 57.7084 175.099C57.8299 175.445 57.879 175.812 57.8526 176.178Z" fill="#3F3D56"/>
<path d="M57.7353 178.089L57.5667 180.784H32.5313L32.3628 178.089H57.7353Z" fill="#9D9CB5"/>
<path d="M57.4975 181.907L57.332 184.605H32.7691L32.6006 181.907H57.4975Z" fill="#9D9CB5"/>
<path d="M57.2597 185.731L57.0942 188.426H33.0069L32.8383 185.731H57.2597Z" fill="#9D9CB5"/>
<path d="M29.4824 149.793C40.4711 157.73 45.058 170.143 45.058 170.143C45.058 170.143 31.8149 169.689 20.8232 161.752C9.83148 153.815 5.2536 141.405 5.2536 141.405C5.2536 141.405 18.4906 141.856 29.4824 149.793Z" fill="#587EEC"/>
<path d="M5.24463 141.405C5.24463 141.405 18.9933 149.021 23.4027 155.327C27.812 161.632 45.058 170.143 45.058 170.143" stroke="#535461" stroke-width="2" stroke-miterlimit="10"/>
<path d="M36.5764 133.805C42.5569 138.122 45.058 144.878 45.058 144.878C45.058 144.878 37.8496 144.632 31.8661 140.315C25.8827 135.998 23.3876 129.239 23.3876 129.239C23.3876 129.239 30.593 129.485 36.5764 133.805Z" fill="#587EEC"/>
<path d="M23.3876 129.239C23.3876 129.239 30.8699 133.384 33.2687 136.815C35.6675 140.246 45.058 144.878 45.058 144.878" stroke="#535461" stroke-width="2" stroke-miterlimit="10"/>
<path d="M53.7413 144.536C46.87 152.073 45.4163 161.924 45.4163 161.924C45.4163 161.924 55.1048 159.55 61.9701 152.01C68.8354 144.47 70.2951 134.622 70.2951 134.622C70.2951 134.622 60.6127 136.998 53.7413 144.536Z" fill="#587EEC"/>
<path d="M70.3012 134.625C70.3012 134.625 61.3501 142.352 59.0747 147.675C56.7993 152.998 45.4163 161.924 45.4163 161.924" stroke="#535461" stroke-width="2" stroke-miterlimit="10"/>
<path d="M305.979 141.883C305.979 141.883 301.01 117.207 302.912 114.137C302.912 114.137 302.981 111.283 302.867 107.645C302.867 107.507 302.867 107.369 302.867 107.227C303.202 107.45 303.551 107.651 303.911 107.828C305.664 108.727 307.676 108.986 309.6 108.561L308.095 106.888C307.734 106.488 307.358 106.056 307.279 105.527C307.201 104.998 307.418 104.527 307.605 104.055C309.034 100.45 309.109 95.9168 306.355 93.165C304.029 90.8518 303.463 87.8657 300.938 85.7538C299.093 84.2067 298.079 81.9386 297.121 79.7456C296.312 77.892 295.496 76.0234 295.033 74.0587C294.671 72.5236 294.527 70.9344 294.03 69.4354C293.534 67.9363 292.604 66.4793 291.15 65.8094C290.632 65.5721 290.057 65.4369 289.585 65.1214C288.965 64.7039 288.592 64.0249 288.143 63.4301C285.865 60.426 278.235 62.1954 274.623 63.4151C273.641 63.7222 272.732 64.2251 271.951 64.8931L271.984 64.8391C272.011 64.794 272.044 64.7489 272.074 64.7039C271.679 65.0229 271.337 65.4033 271.063 65.8304C270.536 66.6626 270.316 67.6329 269.877 68.5341C269.347 69.6006 266.401 72.5777 267.668 73.7764C267.756 73.8569 267.858 73.9218 267.969 73.9686C268.444 74.1662 268.968 74.2185 269.474 74.1188L269.419 74.248C268.987 75.3056 268.765 76.4372 268.766 77.5796C268.766 82.5154 272.844 86.5169 277.88 86.5169C278.826 86.5178 279.768 86.3729 280.67 86.0873C280.691 86.2014 280.709 86.3156 280.73 86.4298C280.73 86.4748 280.745 86.5199 280.751 86.5649L280.592 86.7873C280.584 86.7735 280.575 86.7605 280.565 86.7482L275.839 93.3393C275.117 93.847 270.957 96.8511 270.723 99.1042C270.476 101.571 270.229 104.458 270.229 104.458L270.196 105.076C269.989 105.249 269.748 105.374 269.488 105.444C269.228 105.514 268.956 105.527 268.691 105.482C267.216 105.242 267.216 110.889 267.216 110.889C267.216 110.889 266.235 111.791 265.561 111.01C264.887 110.229 263.105 112.875 263.105 112.875L251.939 113.356L251.683 113.371L251.081 111.511C251.016 111.315 250.876 111.152 250.692 111.058C250.508 110.965 250.294 110.947 250.097 111.01C250.05 111.025 250.005 111.044 249.961 111.067L249.919 111.091L249.841 111.145L249.802 111.181C249.78 111.2 249.76 111.221 249.741 111.244L249.705 111.286L249.687 111.304C249.618 111.4 249.572 111.511 249.553 111.628C249.534 111.744 249.543 111.864 249.579 111.977L250.097 113.572C247.942 114.005 245.738 115.224 247.535 118.583L238.428 116.904L241.374 119.373L256.586 122.506C256.384 122.867 256.516 123.39 257.145 124.126C259.854 127.301 264.79 128.163 266.777 128.385C267.301 129.557 267.957 130.665 268.73 131.69L268.559 134.853C268.559 134.853 263.529 158.965 262.608 160.187C263.073 159.661 263.499 159.102 263.881 158.514C262.422 163.468 260.381 170.248 259.845 171.263C258.984 172.886 258.187 179.45 259.168 179.87C259.469 179.999 260.33 179.936 261.558 179.843V180.387L261.504 200.992C261.504 200.992 261.75 213.631 261.073 214.835C260.396 216.04 260.215 218.567 260.215 218.567C260.215 218.567 257.507 223.55 255.361 225.554C255.346 225.57 255.33 225.584 255.313 225.596L255.246 225.128C255.246 225.128 252.667 228.378 246.96 228.195C246.96 228.195 243.526 230.424 248.619 230.544C253.711 230.664 260.215 230.364 260.215 230.364C260.215 230.364 264.757 223.454 268.562 224.356V229.592H269.726V224.271C270.267 223.916 270.729 223.456 271.085 222.917C271.442 222.379 271.685 221.773 271.8 221.138C271.9 220.483 271.827 219.814 271.588 219.196C271.35 218.578 270.954 218.033 270.44 217.614C270.209 217.406 270.023 217.152 269.896 216.869C269.768 216.585 269.7 216.279 269.696 215.968L269.654 216.004C269.654 215.899 269.627 215.791 269.615 215.68C269.281 212.976 268.863 207.397 270.34 203.27C272.366 197.61 272.98 189.727 271.505 185.034C271.029 183.534 270.638 182.009 270.334 180.465C270.298 180.27 270.265 180.084 270.235 179.909C271.243 180.046 272.241 180.246 273.224 180.51C276.64 181.45 284.113 181.625 290.494 181.574C290.509 181.748 290.527 181.931 290.548 182.114C290.662 183.388 290.9 184.648 291.258 185.876C292.059 188.279 292.426 198.874 292.426 198.874C292.426 198.874 293.459 207.586 292.896 211.131C292.595 213.102 292.294 215.082 292.122 217.07V217.11C292.122 217.11 290.431 221.916 289.194 224.527C289.164 224.593 289.13 224.659 289.1 224.722C288.771 224.752 288.446 224.824 288.134 224.935C288.134 224.935 286.476 228.24 284.823 228.787C283.171 229.333 283.719 231.133 287.46 230.472C291.201 229.811 296.851 229.27 296.851 229.27L297.094 225.9L298.244 224.464L297.943 227.825L299.168 227.585L299.006 223.496L300.887 221.147C300.887 221.147 303.159 219.128 299.782 215.157V215.244C299.746 215.187 299.713 215.127 299.674 215.07V215.052C299.114 214.187 298.668 212.573 299.484 209.71C300.959 204.537 301.817 199.842 301.817 199.842C301.817 199.842 305.109 187.263 301.152 181.312H301.326C300.92 180.475 300.634 179.585 300.474 178.669C300.454 178.561 300.436 178.449 300.42 178.335C303.349 178.167 306.223 177.638 308.568 176.497C308.559 176.485 307.147 146.636 305.979 141.883ZM268.799 121.064V121.124L268.197 121.155L268.799 121.064ZM266.735 121.35C266.636 121.372 266.543 121.416 266.464 121.479C266.205 121.844 266.042 122.269 265.991 122.714L265.052 122.503C265.052 122.503 264.393 122.362 263.445 122.203L262.996 121.752C264.23 121.65 265.513 121.5 266.735 121.35Z" fill="url(#paint1_linear_6_207)"/>
<path d="M297.805 223.538L297.447 227.795L298.647 227.555L298.467 222.938L297.805 223.538Z" fill="#1D2366"/>
<path d="M270.406 203.326C268.959 207.442 269.368 212.997 269.693 215.694C269.814 216.692 269.925 217.299 269.925 217.299C269.925 217.299 267.761 222.219 267.58 222.406C267.4 222.592 261.212 226.362 261.212 226.362L256.887 228.883C256.887 228.883 252.498 226.963 254.602 226.302C255.032 226.13 255.419 225.866 255.737 225.53C257.844 223.532 260.489 218.566 260.489 218.566C260.489 218.566 260.67 216.046 261.332 214.847C261.994 213.649 261.753 201.052 261.753 201.052L261.805 180.519V177.842L270.036 177.902C270.088 178.811 270.207 179.715 270.391 180.606C270.687 182.145 271.07 183.665 271.538 185.16C272.989 189.844 272.387 197.688 270.406 203.326Z" fill="#FFB0B1"/>
<path opacity="0.1" d="M269.925 217.299C269.925 217.299 267.761 222.22 267.58 222.406C267.4 222.592 261.212 226.362 261.212 226.362L256.887 228.883C256.887 228.883 252.498 226.963 254.602 226.302C255.032 226.13 255.419 225.867 255.737 225.53L255.923 226.843L257.365 226.783L269.705 215.701C269.814 216.692 269.925 217.299 269.925 217.299Z" fill="black"/>
<path d="M269.775 215.98L257.365 227.137L255.923 227.197L255.622 225.095C255.622 225.095 253.1 228.333 247.496 228.153C247.496 228.153 244.131 230.373 249.118 230.493C254.106 230.613 260.474 230.313 260.474 230.313C260.474 230.313 264.923 223.403 268.646 224.304V229.523H269.79V224.256C270.321 223.899 270.775 223.438 271.124 222.901C271.472 222.364 271.709 221.762 271.818 221.132C271.917 220.483 271.847 219.819 271.615 219.204C271.382 218.59 270.995 218.045 270.491 217.623C270.266 217.412 270.086 217.158 269.963 216.875C269.84 216.593 269.775 216.288 269.775 215.98Z" fill="#1D2366"/>
<path d="M298.948 209.743C298.148 212.597 298.584 214.205 299.132 215.067V215.085C299.834 216.149 300.323 217.34 300.571 218.591L300.619 218.861L294.972 227.077L291.908 228.279C291.908 228.279 286.981 226.6 287.881 226.119C288.107 226.002 288.459 225.377 288.863 224.515C290.066 221.916 291.728 217.122 291.728 217.122V217.083C291.902 215.103 292.179 213.129 292.486 211.164C293.037 207.629 292.026 198.95 292.026 198.95C292.026 198.95 291.665 188.396 290.882 185.996C290.529 184.775 290.294 183.524 290.181 182.259C290.018 180.757 289.982 179.519 289.982 179.519C289.982 179.519 293.227 175.013 299.174 179.879C299.65 180.267 300.068 180.721 300.417 181.225C304.525 187.059 301.218 199.911 301.218 199.911C301.218 199.911 300.39 204.585 298.948 209.743Z" fill="#FFB0B1"/>
<path opacity="0.1" d="M300.628 218.861L294.981 227.077L291.918 228.279C291.918 228.279 286.991 226.6 287.89 226.119C288.116 226.002 288.468 225.377 288.872 224.515C290.957 224.497 292.038 226.479 292.038 226.479L294.68 226.059C294.68 226.059 298.166 219.221 298.948 218.804C299.731 218.386 299.069 215.683 299.069 215.683V214.995C299.09 215.019 299.108 215.046 299.132 215.07V215.088C299.835 216.152 300.323 217.343 300.571 218.594L300.628 218.861Z" fill="black"/>
<path d="M292.218 226.657C292.218 226.657 290.714 223.899 287.83 224.917C287.83 224.917 286.208 228.222 284.586 228.757C282.963 229.291 283.505 231.094 287.171 230.436C290.837 229.778 296.363 229.234 296.363 229.234L296.604 225.873L300.33 221.135C300.33 221.135 302.551 219.125 299.246 215.169V215.857C299.246 215.857 299.908 218.561 299.126 218.978C298.343 219.396 294.87 226.236 294.87 226.236L292.218 226.657Z" fill="#1D2366"/>
<path opacity="0.1" d="M270.045 177.897C270.097 178.805 270.216 179.709 270.4 180.6C267.011 180.105 263.866 180.351 261.805 180.513V177.837L270.045 177.897Z" fill="black"/>
<path opacity="0.1" d="M300.751 181.973C300.751 181.973 295.936 182.208 290.193 182.256C290.03 180.754 289.994 179.516 289.994 179.516C289.994 179.516 293.239 175.01 299.186 179.876C299.662 180.265 300.08 180.718 300.429 181.222C300.522 181.478 300.63 181.729 300.751 181.973Z" fill="black"/>
<path d="M300.751 181.432C300.751 181.432 279.659 182.451 273.23 180.651C266.801 178.852 260.429 180.411 259.469 179.993C258.509 179.576 259.288 173.036 260.131 171.417C260.974 169.797 265.597 153.422 265.597 153.422L270.045 130.272L274.732 128.983L275.063 128.89L283.228 126.643L289.212 124.994C289.212 124.994 301.109 171.356 300.089 174.775C299.719 176.084 299.659 177.461 299.915 178.798C300.07 179.71 300.352 180.597 300.751 181.432Z" fill="#1D2366"/>
<path d="M254.539 114.44C254.539 114.44 250.325 118.946 253.516 121.458C256.706 123.969 258.804 121.698 258.804 121.698L254.539 114.44Z" fill="#C7DAF5"/>
<path opacity="0.1" d="M254.539 114.44C254.539 114.44 250.325 118.946 253.516 121.458C256.706 123.969 258.804 121.698 258.804 121.698L254.539 114.44Z" fill="black"/>
<path d="M288.583 84.8136C288.583 84.8136 288.089 85.2822 287.346 85.9732C286.286 86.9615 284.718 88.4065 283.328 89.6172C281.401 91.2905 279.812 92.5192 280.381 91.4707C280.95 90.4223 280.842 88.5958 280.559 86.8864C280.538 86.7723 280.519 86.6581 280.498 86.547C280.264 85.2916 279.954 84.0516 279.568 82.8339C279.568 82.8339 282.68 78.8203 284.402 77.2372C285.043 76.6363 285.492 76.39 285.519 76.8076C285.549 77.3694 285.97 78.6101 286.494 79.9259C286.509 79.9679 286.524 80.007 286.542 80.049C286.891 80.9503 287.285 81.8755 287.632 82.6746C288.161 83.9003 288.583 84.8136 288.583 84.8136Z" fill="#FFB0B1"/>
<path opacity="0.1" d="M286.542 80.0489C286.25 81.619 285.54 83.0819 284.487 84.2846C283.435 85.4874 282.078 86.3859 280.559 86.8863C280.319 85.515 279.988 84.1611 279.568 82.8338C279.568 82.8338 285.428 75.2784 285.519 76.8075C285.54 77.3873 285.997 78.673 286.542 80.0489Z" fill="black"/>
<path opacity="0.1" d="M279.975 88.9052L280.733 87.8387C280.733 87.8387 281.236 90.897 283.084 89.5481C284.932 88.1992 285.022 99.6991 285.022 99.6991L283.039 129.299L268.706 128.443L269.112 114.14L270.735 106.93L274.747 96.4486L277.133 92.9848L279.975 88.9052Z" fill="black"/>
<path d="M285.022 99.8823L283.216 126.646L283.027 129.482L275.036 129.004L274.735 128.986L268.715 128.626L269.121 114.32L270.744 107.11L274.756 96.6288L277.142 93.1651L279.984 89.0704L280.742 88.007C280.742 88.007 281.245 91.0652 283.093 89.7163L283.132 89.6893C284.938 88.5477 285.022 99.8823 285.022 99.8823Z" fill="#1D2366"/>
<path d="M270.945 104.605C270.945 104.605 270.226 106.107 268.781 105.864C267.337 105.62 267.34 111.271 267.34 111.271C267.34 111.271 266.379 112.172 265.717 111.391C265.055 110.61 263.309 113.251 263.309 113.251L252.372 113.731C252.372 113.731 257.239 115.951 256.285 122.669C256.285 122.669 272.808 121.647 273.35 120.088C273.892 118.529 270.945 104.605 270.945 104.605Z" fill="white"/>
<path opacity="0.03" d="M270.945 104.605C270.945 104.605 270.226 106.107 268.781 105.864C267.337 105.62 267.34 111.271 267.34 111.271C267.34 111.271 266.379 112.172 265.717 111.391C265.055 110.61 263.309 113.251 263.309 113.251L252.372 113.731C252.372 113.731 257.239 115.951 256.285 122.669C256.285 122.669 272.808 121.647 273.35 120.088C273.892 118.529 270.945 104.605 270.945 104.605Z" fill="black"/>
<path d="M239.159 117.261L242.042 119.719L265.778 124.696L262.834 121.698L239.159 117.261Z" fill="white"/>
<path d="M280.02 89.8515C279.625 90.4523 278.497 93.5285 277.555 96.2142C276.769 98.4523 276.113 100.42 276.113 100.42C276.113 100.42 274.581 110.376 273.799 112.175C273.016 113.975 273.44 120.992 273.44 120.992L270.524 138.323C270.524 138.323 269.203 147.26 267.162 152.599C265.148 157.853 262.906 160.316 262.837 160.395C263.74 159.175 268.661 135.16 268.661 135.16L270.286 104.872C270.286 104.872 270.524 101.994 270.765 99.5338C271.005 97.0734 275.881 93.7148 275.881 93.7148L280.583 87.0426C281.055 87.6735 280.739 88.773 280.02 89.8515Z" fill="white"/>
<path d="M267.761 128.776C267.761 128.776 260.838 128.476 257.486 124.456C254.133 120.437 265.236 122.852 265.236 122.852L268.122 123.513L267.761 128.776Z" fill="#FFB0B1"/>
<path opacity="0.1" d="M300.089 174.778C299.719 176.087 299.659 177.465 299.914 178.801C292.363 179.335 284.285 177.299 284.285 177.299C282.78 178.681 278.816 180.717 278.816 180.717L276.655 153.981C275.273 150.376 274.732 131.489 274.732 131.489C274.732 131.489 274.855 130.5 275.033 129.019C275.033 128.983 275.033 128.944 275.048 128.908C275.586 124.771 276.655 117.006 277.179 115.957C277.901 114.515 274.957 110.679 274.957 110.679L276.297 99.2784L276.459 97.9025C279.282 96.6437 281.446 92.6242 281.446 92.6242L283.108 89.7192C284.914 88.5626 285.007 99.8972 285.007 99.8972L283.201 126.661L289.185 125.012C289.185 125.012 301.109 171.36 300.089 174.778Z" fill="black"/>
<path d="M307.839 176.626C299.607 180.706 284.646 176.926 284.646 176.926C283.141 178.308 279.177 180.345 279.177 180.345L277.013 153.608C275.635 150.003 275.093 131.116 275.093 131.116C275.093 131.116 276.832 117.024 277.555 115.585C277.765 115.164 277.663 114.54 277.413 113.867C276.185 110.664 275.733 107.216 276.095 103.806L276.673 98.906L276.832 97.5332C279.659 96.2714 281.823 92.2519 281.823 92.2519L283.328 89.6203L286.097 84.7716L287.409 82.4764L287.632 82.6777L289.332 84.2158C289.332 84.2158 290.054 84.8167 291.138 85.7179C293.495 87.7006 297.567 91.1914 299.668 93.3274C301.516 95.208 302.1 102.523 302.268 108.03C302.379 111.656 302.313 114.497 302.313 114.497C300.45 117.559 305.323 142.136 305.323 142.136C306.458 146.885 307.839 176.626 307.839 176.626Z" fill="white"/>
<path opacity="0.03" d="M292.038 92.1918C292.038 92.1918 286.389 102.926 287.045 107.005C287.701 111.085 289.567 115.702 288.667 116.781C288.358 117.189 287.958 117.521 287.499 117.75C287.04 117.978 286.534 118.098 286.021 118.099C285.118 118.16 282.711 119.839 282.711 120.019C282.711 120.199 280.486 120.199 278.497 121.04C276.507 121.882 273.57 122.359 273.57 122.359C273.57 122.359 267.851 122.179 267.319 122.72C266.786 123.261 266.238 126.496 267.379 129.077C268.519 131.657 269.787 133.583 270.744 133.934C271.701 134.286 277.775 132.255 282.702 131.774C287.629 131.294 292.977 127.397 292.977 127.397C292.977 127.397 298.867 125.294 299.899 121.758C300.932 118.223 298.638 98.7889 298.638 98.7889C298.638 98.7889 296.905 89.7314 292.038 92.1918Z" fill="black"/>
<path opacity="0.03" d="M291.316 91.2906C291.316 91.2906 285.666 102.027 286.328 106.104C286.99 110.181 288.85 114.801 287.948 115.882C287.639 116.291 287.24 116.623 286.782 116.852C286.323 117.081 285.818 117.201 285.305 117.201C284.402 117.261 281.994 118.941 281.994 119.121C281.994 119.301 279.77 119.301 277.78 120.139C275.791 120.977 272.853 121.458 272.853 121.458C272.853 121.458 267.135 121.278 266.605 121.819C266.075 122.359 265.522 125.598 266.665 128.175C267.809 130.753 269.073 132.682 270.03 133.033C270.987 133.384 277.061 131.354 281.988 130.876C286.915 130.398 292.264 126.496 292.264 126.496C292.264 126.496 298.151 124.393 299.171 120.86C300.191 117.327 297.91 97.8876 297.91 97.8876C297.91 97.8876 296.182 88.8332 291.316 91.2906Z" fill="black"/>
<path d="M291.86 91.651C291.86 91.651 286.211 102.388 286.873 106.464C287.535 110.541 289.395 115.161 288.495 116.24C288.187 116.65 287.788 116.983 287.329 117.212C286.869 117.442 286.363 117.561 285.85 117.562C284.947 117.622 282.539 119.301 282.539 119.478C282.539 119.656 280.318 119.659 278.325 120.5C276.333 121.341 273.398 121.818 273.398 121.818C273.398 121.818 267.68 121.638 267.147 122.179C266.614 122.72 266.066 125.958 267.207 128.536C268.348 131.113 269.615 133.042 270.572 133.393C271.529 133.745 277.603 131.714 282.53 131.233C287.457 130.753 292.805 126.856 292.805 126.856C292.805 126.856 298.695 124.754 299.728 121.218C300.76 117.682 298.482 98.2481 298.482 98.2481C298.482 98.2481 296.724 89.2056 291.86 91.651Z" fill="white"/>
<path opacity="0.1" d="M291.737 120.449C291.737 120.449 287.222 119.547 288.793 121.049C290.364 122.551 290.355 123.867 292.279 123.807C294.202 123.747 291.737 120.449 291.737 120.449Z" fill="black"/>
<path opacity="0.1" d="M299.367 152.767C299.367 152.767 297.326 154.146 301.23 157.324C305.133 160.503 299.367 152.767 299.367 152.767Z" fill="black"/>
<path opacity="0.1" d="M295.472 164.102C295.472 164.282 294.75 170.711 297.452 172.318C300.155 173.925 295.472 164.102 295.472 164.102Z" fill="black"/>
<path d="M252.559 113.716C250.379 113.791 245.672 114.455 248.113 119.001C250.271 123.023 253.898 120.334 255.938 118.295C255.441 116.393 254.231 114.754 252.559 113.716Z" fill="#FFB0B1"/>
<path d="M255.966 118.259L256.056 118.166L255.966 118.259Z" fill="#FFB0B1"/>
<path opacity="0.1" d="M291.138 85.9009C288.826 87.4781 286.888 88.8089 286.509 89.0853C285.474 89.8514 283.499 94.3485 282.226 96.6437C281.212 98.4912 277.916 98.9659 276.673 99.0831L276.833 97.7102C279.659 96.4484 281.823 92.4289 281.823 92.4289L287.409 82.6534L289.332 84.3988C289.332 84.3988 290.054 84.9997 291.138 85.9009Z" fill="black"/>
<path d="M291.138 85.7207C288.826 87.2979 286.888 88.6287 286.509 88.9081C285.474 89.6712 283.499 94.1683 282.226 96.4635C281.212 98.311 277.916 98.7857 276.673 98.9029L276.833 97.53C279.659 96.2682 281.823 92.2487 281.823 92.2487L287.409 82.4733L289.332 84.2127C289.332 84.2127 290.054 84.8075 291.138 85.7207Z" fill="#DCE7FF"/>
<path d="M286.689 78.0663C286.691 79.8697 286.143 81.6308 285.118 83.1162C283.908 84.8726 282.108 86.1378 280.043 86.6824C277.979 87.227 275.787 87.0148 273.866 86.0844C271.944 85.154 270.421 83.567 269.572 81.6113C268.722 79.6557 268.604 77.461 269.237 75.4254C269.87 73.3899 271.214 71.6484 273.023 70.5168C274.833 69.3853 276.989 68.9388 279.101 69.2583C281.212 69.5778 283.139 70.6421 284.531 72.2581C285.923 73.8742 286.689 75.9349 286.689 78.0663Z" fill="#FFB0B1"/>
<path opacity="0.1" d="M302.268 108.032C301.046 107.282 300.05 106.215 299.388 104.944C298.885 103.953 298.551 102.808 297.693 102.105C296.92 101.474 295.887 101.321 294.924 101.039C291.758 100.105 289.103 97.2206 289.004 93.9281C288.956 92.3779 289.44 90.8308 289.221 89.2957C289.096 88.4269 288.75 87.6046 288.215 86.9074C287.95 86.574 287.659 86.2616 287.346 85.9731C286.924 85.5766 286.482 85.192 286.097 84.7715C285.854 84.511 285.642 84.2238 285.464 83.9153C285.321 83.6628 285.205 83.396 285.118 83.1192C284.516 81.2806 285.064 79.0997 284.402 77.2401L284.366 77.1379C284.116 76.477 283.607 75.8161 282.9 75.7651C282.193 75.714 281.588 76.2998 280.914 76.5612C279.502 77.1079 277.979 76.1766 276.802 75.2273C275.625 74.278 274.298 73.1935 272.802 73.4038C271.812 73.545 271.03 74.2179 270.118 74.5664C269.912 74.646 269.699 74.7073 269.483 74.7497C270.254 72.8286 271.672 71.2357 273.493 70.2447C275.313 69.2537 277.423 68.9266 279.459 69.3193C281.495 69.7121 283.33 70.8004 284.65 72.3971C285.969 73.9939 286.691 75.9994 286.689 78.0692C286.69 78.6943 286.625 79.3176 286.494 79.9288C286.509 79.9708 286.524 80.0099 286.542 80.052C286.891 80.9532 287.285 81.8785 287.632 82.6776L289.332 84.2157C289.332 84.2157 290.054 84.8165 291.138 85.7178C293.495 87.7005 297.567 91.1913 299.668 93.3272C301.516 95.2138 302.094 102.526 302.268 108.032Z" fill="black"/>
<path d="M270.012 69.0779C270.443 68.2037 270.656 67.2243 271.171 66.3952C271.927 65.1935 273.245 64.4245 274.599 63.9588C278.136 62.7422 285.609 60.9757 287.842 63.9588C288.282 64.5597 288.646 65.2266 289.254 65.6412C289.717 65.9566 290.277 66.0918 290.786 66.3291C292.209 66.996 293.118 68.45 293.603 69.9341C294.088 71.4181 294.232 73.0103 294.587 74.5394C295.042 76.5011 295.839 78.3607 296.634 80.2082C297.57 82.3892 298.563 84.6513 300.369 86.1924C302.834 88.2953 303.379 91.2724 305.666 93.5796C308.375 96.3194 308.288 100.841 306.891 104.431C306.708 104.902 306.5 105.395 306.572 105.897C306.644 106.398 307.018 106.855 307.37 107.254L308.85 108.922C305.347 109.766 301.383 107.939 299.752 104.734C299.249 103.743 298.915 102.601 298.054 101.895C297.284 101.264 296.249 101.114 295.288 100.832C292.122 99.8943 289.468 97.0073 289.368 93.7148C289.32 92.1677 289.805 90.6205 289.585 89.0884C289.463 88.2138 289.115 87.3857 288.577 86.6851C287.749 85.6066 286.5 84.8826 285.826 83.681C284.685 81.6712 285.552 79.0606 284.73 76.9037C284.477 76.2427 283.972 75.5818 283.264 75.5308C282.557 75.4797 281.952 76.0655 281.275 76.3269C279.866 76.8736 278.343 75.9453 277.167 74.993C275.99 74.0407 274.662 72.9592 273.164 73.1725C272.173 73.3107 271.394 73.9836 270.482 74.3351C269.808 74.5935 268.441 74.8248 267.851 74.257C266.605 73.1124 269.492 70.1474 270.012 69.0779Z" fill="#591D4B"/>
<path opacity="0.1" d="M300.589 103.743C300.083 102.751 299.752 101.61 298.891 100.907C298.121 100.276 297.085 100.123 296.122 99.8403C292.959 98.906 290.304 96.019 290.202 92.7265C290.154 91.1794 290.638 89.6292 290.422 88.0971C290.296 87.2281 289.948 86.4059 289.413 85.7089C288.583 84.6304 287.334 83.9064 286.662 82.7047C285.522 80.698 286.389 78.0874 285.564 75.9274C285.314 75.2695 284.805 74.6086 284.101 74.5545C283.397 74.5004 282.786 75.0923 282.112 75.3536C280.703 75.9004 279.177 74.9691 278.003 74.0198C276.829 73.0705 275.496 71.986 274 72.1963C273.01 72.3375 272.227 73.0104 271.319 73.3589C270.644 73.6172 269.275 73.8515 268.685 73.2838C267.445 72.0821 270.331 69.123 270.849 68.0596C271.279 67.1824 271.493 66.206 272.011 65.3769C272.038 65.3318 272.068 65.2868 272.098 65.2417C271.711 65.5619 271.377 65.9411 271.108 66.3652C270.593 67.1944 270.379 68.1677 269.949 69.0479C269.428 70.1114 266.542 73.0795 267.785 74.2721C268.387 74.8429 269.741 74.6086 270.416 74.3502C271.319 73.9987 272.107 73.3258 273.097 73.1876C274.602 72.9743 275.927 74.0588 277.1 75.0081C278.274 75.9574 279.809 76.8887 281.212 76.342C281.886 76.0806 282.476 75.4918 283.198 75.5459C283.92 75.5999 284.402 76.2579 284.664 76.9188C285.486 79.0757 284.619 81.6863 285.759 83.6961C286.434 84.8767 287.683 85.6157 288.51 86.7002C289.049 87.4008 289.396 88.2289 289.519 89.1035C289.738 90.6356 289.254 92.1828 289.302 93.7299C289.401 97.0344 292.056 99.9094 295.222 100.847C296.176 101.129 297.218 101.279 297.988 101.91C298.852 102.616 299.192 103.758 299.686 104.749C301.317 107.954 305.281 109.781 308.784 108.937L308.086 108.15C305.049 108.195 301.976 106.47 300.589 103.743Z" fill="black"/>
<path opacity="0.1" d="M279.839 90.0318C279.445 90.6326 278.316 93.7088 277.374 96.3945C276.492 96.0521 275.692 93.8681 275.692 93.8681L280.393 87.1929C280.875 87.8538 280.559 88.9503 279.839 90.0318Z" fill="black"/>
<path d="M280.02 89.8514C279.626 90.4522 278.497 93.5285 277.555 96.2142C276.673 95.8747 275.872 93.6877 275.872 93.6877L280.574 87.0155C281.055 87.6734 280.739 88.7729 280.02 89.8514Z" fill="#DCE7FF"/>
<path d="M252.685 120.542L250.078 112.337C250.048 112.241 250.036 112.14 250.044 112.04C250.053 111.939 250.081 111.841 250.128 111.752C250.174 111.662 250.238 111.582 250.315 111.518C250.392 111.453 250.482 111.403 250.578 111.373C250.772 111.313 250.982 111.331 251.162 111.425C251.343 111.518 251.479 111.679 251.541 111.872L254.148 120.067L253.889 121.782L252.685 120.542Z" fill="#BE8B87"/>
<path opacity="0.1" d="M250.325 111.616C250.52 111.555 250.731 111.573 250.912 111.667C251.093 111.76 251.229 111.921 251.292 112.115L253.898 120.31L253.702 121.596L253.892 121.795L254.151 120.079L251.529 111.884C251.467 111.691 251.331 111.53 251.151 111.437C250.97 111.343 250.76 111.325 250.566 111.385C250.403 111.438 250.262 111.544 250.166 111.686C250.217 111.658 250.27 111.635 250.325 111.616Z" fill="white"/>
<path d="M252.685 120.542L254.148 120.079L253.934 121.485L253.889 121.795L253.461 121.35L252.685 120.542Z" fill="#EFC8C4"/>
<path d="M253.461 121.35C253.487 121.318 253.519 121.291 253.555 121.272C253.576 121.258 253.601 121.251 253.626 121.251C253.651 121.251 253.675 121.258 253.696 121.272C253.717 121.296 253.734 121.324 253.747 121.353C253.767 121.386 253.794 121.414 253.827 121.436C253.859 121.457 253.896 121.471 253.934 121.476L253.889 121.776L253.461 121.35Z" fill="#727A9C"/>
<path d="M250.063 115.251C250.063 115.251 255.291 115.221 254.06 117.441C252.829 119.662 250.906 119.929 250.906 119.929L250.063 115.251Z" fill="#FFB0B1"/>
<path d="M217.549 15.6193H217.323C208.342 15.6193 200.399 20.3628 195.83 27.3624C191.261 20.3628 183.319 15.6193 174.337 15.6193H174.112C167.371 15.6834 160.929 18.3999 156.184 23.1785C151.439 27.9571 148.776 34.4116 148.772 41.1394C148.772 49.4939 152.438 61.3482 159.586 71.1026C173.206 89.6892 195.83 105.951 195.83 105.951C195.83 105.951 218.455 89.6922 232.071 71.1026C239.222 61.3482 242.885 49.4939 242.885 41.1394C242.881 34.4121 240.218 27.958 235.474 23.1795C230.73 18.401 224.288 15.6842 217.549 15.6193ZM214.319 72.5326C213.296 72.5287 212.299 72.2162 211.457 71.6361C210.615 71.056 209.969 70.2354 209.603 69.2821H204.233C203.88 69.2799 203.536 69.1675 203.249 68.9607C202.963 68.7539 202.748 68.463 202.635 68.1285L200.986 63.1687L195.767 81.3707C195.665 81.7211 195.453 82.0291 195.161 82.2485C194.869 82.4679 194.513 82.5868 194.148 82.5874H194.042C193.661 82.569 193.298 82.4205 193.013 82.1668C192.728 81.9131 192.539 81.5695 192.477 81.1935L187.099 48.9051L183.168 68.0113C183.078 68.3743 182.869 68.6967 182.573 68.927C182.278 69.1573 181.914 69.2823 181.54 69.2821H173.976C173.749 69.2917 173.523 69.2554 173.311 69.1754C173.098 69.0954 172.905 68.9733 172.741 68.8166C172.577 68.6598 172.447 68.4716 172.357 68.2633C172.268 68.055 172.223 67.8308 172.223 67.6043C172.223 67.3778 172.268 67.1536 172.357 66.9453C172.447 66.7369 172.577 66.5487 172.741 66.392C172.905 66.2352 173.098 66.1132 173.311 66.0332C173.523 65.9532 173.749 65.9169 173.976 65.9265H180.215L185.784 40.2381C185.875 39.8583 186.096 39.522 186.408 39.2867C186.72 39.0514 187.105 38.9316 187.496 38.9479C187.887 38.9642 188.26 39.1156 188.552 39.3762C188.843 39.6367 189.035 39.9902 189.094 40.3763L194.587 73.3136L199.264 57.0282C199.362 56.6852 199.568 56.3829 199.851 56.1663C200.135 55.9497 200.481 55.8306 200.838 55.8266H200.872C201.225 55.8267 201.57 55.9383 201.856 56.1454C202.143 56.3526 202.356 56.6447 202.467 56.9802L205.449 65.9355H209.537C209.827 65.0543 210.356 64.2703 211.065 63.6702C211.774 63.07 212.635 62.677 213.553 62.5345C214.472 62.392 215.412 62.5055 216.27 62.8626C217.128 63.2197 217.87 63.8064 218.415 64.558C218.96 65.3095 219.286 66.1968 219.358 67.1218C219.429 68.0467 219.243 68.9735 218.821 69.7997C218.398 70.6259 217.755 71.3195 216.962 71.8039C216.169 72.2882 215.258 72.5446 214.328 72.5446L214.319 72.5326Z" fill="#EC5863"/>
</g>
<defs>
<filter id="filter0_d_6_207" x="0.760071" y="0.170288" width="340.93" height="243.147" filterUnits="userSpaceOnUse" color-interpolation-filters="sRGB">
<feFlood flood-opacity="0" result="BackgroundImageFix"/>
<feColorMatrix in="SourceAlpha" type="matrix" values="0 0 0 0 0 0 0 0 0 0 0 0 0 0 0 0 0 0 127 0" result="hardAlpha"/>
<feOffset dy="4"/>
<feGaussianBlur stdDeviation="2"/>
<feComposite in2="hardAlpha" operator="out"/>
<feColorMatrix type="matrix" values="0 0 0 0 0 0 0 0 0 0 0 0 0 0 0 0 0 0 0.25 0"/>
<feBlend mode="normal" in2="BackgroundImageFix" result="effect1_dropShadow_6_207"/>
<feBlend mode="normal" in="SourceGraphic" in2="effect1_dropShadow_6_207" result="shape"/>
</filter>
<linearGradient id="paint0_linear_6_207" x1="112.348" y1="232.953" x2="112.348" y2="48.0969" gradientUnits="userSpaceOnUse">
<stop stop-color="#808080" stop-opacity="0.25"/>
<stop offset="0.54" stop-color="#808080" stop-opacity="0.12"/>
<stop offset="1" stop-color="#808080" stop-opacity="0.1"/>
</linearGradient>
<linearGradient id="paint1_linear_6_207" x1="67188.1" y1="139477" x2="67188.1" y2="44588.4" gradientUnits="userSpaceOnUse">
<stop stop-color="#808080" stop-opacity="0.25"/>
<stop offset="0.54" stop-color="#808080" stop-opacity="0.12"/>
<stop offset="1" stop-color="#808080" stop-opacity="0.1"/>
</linearGradient>
</defs>
</svg>
